<?xml version="1.0" standalone="no"?>
<!DOCTYPE svg PUBLIC "-//W3C//DTD SVG 1.1//EN" "http://www.w3.org/Graphics/SVG/1.1/DTD/svg11.dtd" >
<svg xmlns="http://www.w3.org/2000/svg">
<metadata>Generated by IcoMoon</metadata>
<defs>
<font id="icomoon" horiz-adv-x="1024">
<font-face units-per-em="1024" ascent="960" descent="-64" />
<missing-glyph horiz-adv-x="1024" />
<glyph unicode="&#x20;" horiz-adv-x="512" d="" />
<glyph unicode="&#xe900;" glyph-name="order" horiz-adv-x="1025" d="M1024.677 456.434c0 149.691 0.028 299.381 0 449.072 0 29.983-24.427 54.466-54.353 54.466-268.58 0.028-537.132 0.028-805.684 0-16.98 0-30.914-6.967-41.745-19.914-8.603-10.295-12.552-22.255-12.552-35.737 0.028-272.557 0.028-545.142 0.113-817.699 0-3.441-0.677-4.457-4.316-4.428-23.27 0.169-46.569 0.141-69.839 0.056-16.811-0.056-32.635-12.58-34.694-29.306-2.228-17.883-2.031-36.048-0.085-53.959 3.751-34.891 35.681-62.956 70.854-62.956 293.543-0.028 587.085-0.028 880.599-0.028 3.921 0 7.785 0.423 11.621 1.128 35.596 6.572 60.277 38.107 60.192 73.534-0.31 148.591-0.113 297.181-0.113 445.772zM883.617-27.416c-269.144 0-538.316 0-807.461 0-19.039 0-33.396 10.718-37.768 28.15-0.705 2.849-1.128 5.726-1.128 8.659-0.028 11.085 0.056 22.198-0.056 33.283-0.028 2.313 0.536 3.441 2.99 3.074 0.705-0.113 1.467-0.028 2.2-0.028 276.957 0 553.914 0 830.872 0 5.134 0 5.134 0 5.134-5.246 0-10.126 0.113-20.224-0.028-30.35-0.169-12.072 2.821-23.355 8.208-34.073 0.48-0.959 0.931-1.918 1.692-3.469-2.003 0-3.328 0-4.654 0zM988.093 456.349c0-148.224 0-296.448 0-444.7 0-16.529-6.854-29.024-22.142-35.907-23.806-10.747-50.489 6.854-50.969 33.509-0.197 11.565-0.423 23.186 0.028 34.75 0.846 20.985-16.416 38.445-38.389 38.445-241.248-0.226-482.468-0.141-723.716-0.141-1.1 0-2.2 0.085-3.3-0.028-2.003-0.226-3.018 0.423-2.708 2.595 0.113 0.705 0.028 1.467 0.028 2.2 0 271.711 0 543.422-0.028 815.133 0 5.246 0.733 10.182 4.175 14.385 3.526 4.316 8.152 6.431 13.624 6.798 1.326 0.085 2.68 0.056 4.033 0.056 265.872 0 531.716 0 797.588 0.028 4.569 0 8.998-0.31 13.003-2.821 5.585-3.526 8.321-8.716 8.716-15.203 0.085-1.467 0.028-2.933 0.028-4.4 0.028-148.224 0.028-296.476 0.028-444.7zM402.955 566.692c0-9.393 0.028-18.757 0-28.15-0.141-28.488-23.496-52.746-52.012-53.846-2.595-0.113-2.933-1.072-2.877-3.244 0.113-5.105 0.085-10.239 0.028-15.344-0.113-10.239-8.208-18.137-18.532-18.080-10.013 0.056-17.939 8.039-18.024 18.193-0.056 5.246-0.085 10.493 0.028 15.711 0.056 2.031-0.564 2.623-2.651 2.736-29.617 1.523-52.21 25.386-52.266 55.087 0 6.093-0.056 12.185 0 18.278 0.085 10.098 8.095 17.967 18.193 17.967 10.154 0 18.221-7.785 18.334-17.855 0.085-5.98-0.028-11.959 0.028-17.911 0.113-11.198 7.982-19.011 19.208-19.067 11.593-0.056 23.157-0.056 34.75 0 11.198 0.056 19.124 7.87 19.18 19.096 0.085 17.685 0.085 35.342 0 53.028-0.056 11.48-7.813 19.208-19.321 19.293-12.072 0.085-24.145-0.028-36.189 0.028-29.447 0.085-54.043 24.596-54.156 53.959-0.056 18.898-0.056 37.796 0 56.666 0.085 28.517 23.468 52.717 52.012 53.846 2.172 0.085 2.962 0.536 2.905 2.849-0.169 5.359-0.113 10.718-0.028 16.078 0.141 9.844 8.18 17.657 18.108 17.685 10.182 0.028 18.278-7.729 18.419-17.77 0.085-5.359 0.085-10.718-0.028-16.078-0.028-1.974 0.423-2.651 2.595-2.764 29.729-1.551 52.266-25.301 52.294-55.030 0-6.093 0.056-12.185 0-18.278-0.113-10.239-8.236-18.108-18.532-18.052-9.985 0.056-17.911 8.067-17.996 18.221-0.056 5.839 0.056 11.706-0.028 17.544-0.141 11.254-7.898 18.983-19.18 19.067-11.593 0.085-23.157 0.085-34.75 0-11.452-0.085-19.152-7.898-19.18-19.434-0.056-17.544-0.056-35.117 0-52.661 0.028-11.452 7.898-19.293 19.321-19.321 12.298-0.056 24.624 0.028 36.922-0.028 28.545-0.141 53.197-24.68 53.451-53.197 0.028-9.731-0.028-19.491-0.028-29.222zM659.321 521.139c54.72 0 109.468 0 164.189 0 7.644 0 14.075-4.316 16.896-11.17 2.905-7.023 1.354-14.949-4.090-20.196-3.469-3.328-7.587-5.19-12.467-5.19-109.948 0-219.896 0-329.844 0.028-10.013 0-17.911 8.18-17.911 18.278 0 10.126 7.87 18.221 17.939 18.249 55.115 0.028 110.202 0 165.289 0zM622.71 704c42.535 0 85.070 0 127.605 0 7.531 0 13.144-3.498 16.444-10.154 3.244-6.516 2.623-13.031-1.692-18.955-3.498-4.795-8.321-7.418-14.357-7.418-85.55-0.028-171.127-0.028-256.677 0-10.013 0-17.939 8.18-17.967 18.249 0 10.126 7.841 18.249 17.911 18.278 42.93 0.028 85.832 0 128.733 0zM567.538 411.445c-24.257 0-48.515 0-72.772 0-9.59 0-17.488 6.713-18.588 15.711-1.185 9.675 4.71 18.249 14.216 20.478 1.41 0.338 2.905 0.367 4.344 0.367 48.515 0.028 97.001 0.028 145.516 0 10.718 0 18.673-7.841 18.701-18.249 0-10.38-8.011-18.306-18.644-18.306-24.257-0.028-48.515 0-72.772 0zM567.143 740.584c-24.004 0-48.007 0-72.039 0-11 0-19.039 7.757-19.039 18.278 0 10.577 7.982 18.278 19.039 18.278 48.374 0 96.776 0.028 145.149 0 9.675 0 17.46-6.628 18.588-15.711 1.185-9.506-4.598-17.939-13.877-20.421-1.692-0.451-3.385-0.423-5.077-0.423-24.229 0-48.487 0-72.744 0zM768.282 740.584c-17.911 0-35.822 0-53.733 0-11 0-19.039 7.757-19.039 18.278 0 10.577 7.982 18.278 19.039 18.278 36.33 0.028 72.631 0.028 108.961 0 9.364 0 17.121-6.77 18.221-15.711 1.156-9.393-4.428-17.685-13.539-20.309-1.805-0.508-3.61-0.536-5.416-0.536-18.165 0-36.33 0-54.494 0zM731.727 411.445c-6.093 0-12.185-0.056-18.278 0-10.013 0.085-17.911 8.208-17.911 18.278 0 10.126 7.841 18.193 17.911 18.249 12.439 0.056 24.85 0.056 37.289 0 10.070-0.056 17.939-8.123 17.939-18.249 0-10.070-7.926-18.193-17.939-18.278-6.346-0.056-12.665 0-19.011 0zM201.816 192.31c0 6.093-0.056 12.185 0 18.278 0.085 10.098 8.095 17.967 18.193 17.996 10.154 0.028 18.278-7.785 18.334-17.826 0.085-12.439 0.085-24.85 0-37.289-0.056-10.211-8.236-18.080-18.56-18.024-9.985 0.056-17.911 8.067-17.967 18.221-0.028 6.205 0 12.439 0 18.644zM329.816 191.803c0-6.093 0.056-12.185 0-18.278-0.085-10.239-8.208-18.137-18.503-18.080-10.013 0.056-17.996 8.039-18.052 18.165-0.056 12.298-0.056 24.624 0 36.922 0.056 10.126 8.039 18.024 18.108 18.052 10.323 0.028 18.334-7.813 18.419-18.137 0.056-6.234 0.028-12.439 0.028-18.644zM384.677 192.367c0 6.093-0.056 12.185 0 18.278 0.113 10.070 8.123 17.911 18.249 17.911s18.221-7.813 18.278-17.911c0.085-12.439 0.085-24.85 0-37.289-0.056-10.041-8.18-17.939-18.249-17.939-10.098 0-18.165 7.898-18.278 17.939-0.056 6.346 0 12.693 0 19.011zM476.093 192.028c0 6.205-0.056 12.439 0 18.644 0.113 10.070 8.123 17.911 18.278 17.911 10.126 0 18.193-7.841 18.249-17.911 0.085-12.439 0.085-24.85 0-37.289-0.056-10.041-8.208-17.939-18.278-17.939-10.098 0-18.165 7.898-18.249 17.939-0.056 6.205 0 12.411 0 18.644zM604.093 191.774c0-6.093 0.056-12.185 0-18.278-0.113-10.239-8.236-18.108-18.532-18.052-10.013 0.056-17.967 8.039-18.024 18.193-0.056 12.298-0.056 24.624 0 36.922 0.056 10.126 8.039 17.996 18.137 18.024 10.323 0.028 18.306-7.841 18.39-18.165 0.056-6.234 0.028-12.439 0.028-18.644zM695.51 191.831c0-6.093 0.056-12.185 0-18.278-0.085-10.239-8.18-18.165-18.475-18.108-10.013 0.056-18.024 8.011-18.080 18.137-0.056 12.298-0.056 24.624 0 36.922 0.056 10.154 8.011 18.052 18.080 18.080 10.323 0.028 18.362-7.785 18.447-18.108 0.085-6.205 0.028-12.439 0.028-18.644zM786.955 192.028c0-6.205 0.056-12.439 0-18.644-0.113-10.041-8.18-17.939-18.249-17.939-10.098 0-18.221 7.898-18.278 17.939-0.085 12.439-0.085 24.85 0 37.289 0.056 10.070 8.123 17.911 18.249 17.911s18.165-7.813 18.278-17.883c0.056-6.234 0-12.467 0-18.673zM878.371 191.859c0-6.093 0.056-12.185 0-18.278-0.085-10.267-8.18-18.165-18.447-18.137-10.013 0.028-18.052 8.011-18.080 18.108-0.056 12.298-0.056 24.624 0 36.922 0.056 10.295 8.095 18.137 18.447 18.108 10.070-0.028 18.024-7.926 18.108-18.080 0.028-6.234-0.028-12.439-0.028-18.644zM969.816 192.028c0-6.205 0.056-12.439 0-18.644-0.113-10.041-8.208-17.939-18.278-17.939-10.098 0-18.193 7.898-18.249 17.939-0.085 12.439-0.085 24.85 0 37.289 0.056 10.070 8.123 17.911 18.249 17.911s18.165-7.841 18.278-17.911c0.056-6.234 0-12.439 0-18.644z" />
<glyph unicode="&#xe901;" glyph-name="bed" d="M903.997 457.6h-1.997v280c0 66.168-53.832 120-120.003 120h-541.998c-66.168 0-120-53.832-120-120v-280c-66.168 0-120-53.832-120-119.997v-220.001h80v-72.003h80v72.003h704v-72.003h80v72.003h80v220.001c0 66.165-53.832 119.997-120.003 119.997zM200 737.6c0 22.056 17.944 40 40 40h541.998c22.057 0 40.003-17.944 40.003-40v-280h-76.001v60c0 66.168-53.832 119.999-119.997 119.999h-232.002c-66.168 0-120-53.832-120-119.999v-60h-74v280zM665.999 517.6v-60h-311.999v60c0 22.056 17.944 39.999 40 39.999h232.002c22.052 0 39.997-17.944 39.997-39.999zM944 197.601h-864v140.001c0 22.053 17.944 39.997 40 39.997h783.997c22.057 0 40.003-17.944 40.003-39.997v-140.001z" />
<glyph unicode="&#xe902;" glyph-name="bell" horiz-adv-x="864" d="M496 781.653c-11.776 0-21.333 9.558-21.333 21.334v71.68c0 23.509-19.157 42.667-42.667 42.667-23.509 0-42.666-19.157-42.666-42.667v-71.68c0-11.776-9.558-21.334-21.334-21.334s-21.333 9.515-21.333 21.334v71.68c0 47.061 38.272 85.333 85.333 85.333 47.062 0 85.334-38.272 85.334-85.333v-71.68c0-11.819-9.558-21.334-21.334-21.334zM432-63.998c-82.346 0-149.333 66.986-149.333 149.333 0 11.776 9.557 21.333 21.333 21.333s21.334-9.557 21.334-21.333c0-58.795 47.872-106.667 106.666-106.667 58.795 0 106.667 47.872 106.667 106.667 0 11.776 9.557 21.333 21.333 21.333s21.334-9.557 21.334-21.333c0-82.347-66.987-149.333-149.334-149.333zM794.667 64h-725.334c-35.285 0-64 28.715-64 64 0 18.731 8.149 36.437 22.4 48.64 67.243 56.832 105.6 139.52 105.6 227.072v129.621c0 164.694 133.974 298.667 298.667 298.667s298.667-133.973 298.667-298.667v-129.621c0-87.595 38.357-170.24 105.258-226.773 14.592-12.502 22.742-30.208 22.742-48.939 0-35.285-28.672-64-64-64zM432 789.333c-141.184 0-256-114.816-256-256v-129.621c0-100.181-43.861-194.688-120.363-259.371-4.907-4.181-7.637-10.112-7.637-16.341 0-11.776 9.557-21.333 21.333-21.333h725.334c11.776 0 21.333 9.557 21.333 21.333 0 6.229-2.73 12.16-7.466 16.213-76.63 64.811-120.534 159.36-120.534 259.499v129.621c0 141.184-114.816 256-256 256z" />
<glyph unicode="&#xe903;" glyph-name="car" d="M899.466 557.841l-112.143 262.505c-9.6 22.66-31.877 37.254-56.458 37.254h-478.537c-24.58 0-46.663-14.594-56.457-37.254l-112.145-262.505c-49.352-22.659-83.725-72.587-83.725-130.388v-163.804c0-33.797 27.652-61.445 61.45-61.445h20.547v-102.354c0-33.797 27.652-61.45 61.45-61.45h81.997c33.797 0 61.45 27.653 61.45 61.45v102.354h409.601v-102.354c0-33.797 27.653-61.45 61.45-61.45h81.997c33.797 0 61.45 27.653 61.45 61.45v102.354h20.352c33.797 0 61.45 27.648 61.45 61.445v163.804c0 57.801-34.376 107.729-83.727 130.388zM233.508 804.216c3.265 7.489 10.562 12.482 18.819 12.482h478.537c8.259 0 15.555-4.801 18.821-12.29l99.855-233.701c-3.267 0.192-6.528 0.385-9.6 0.385h-696.495c-3.265 0-6.529-0.193-9.602-0.385l99.663 233.509zM245.798 99.85c0-11.331-9.218-20.547-20.547-20.547h-81.805c-11.33 0-20.547 9.216-20.547 20.547v102.354h122.899v-102.354zM839.747 79.304h-81.997c-11.331 0-20.547 9.216-20.547 20.547v102.354h122.9v-102.354h0.189c0-11.331-9.216-20.547-20.547-20.547zM921.743 243.103h-860.294c-11.33 0-20.547 9.221-20.547 20.547v163.804c0 56.457 45.895 102.352 102.352 102.352h696.492c56.458 0 102.354-45.895 102.354-102.352v-163.804h0.189c0-11.325-9.216-20.547-20.547-20.547zM184.349 488.903c-56.457 0-102.352-45.896-102.352-102.352 0-56.459 45.895-102.355 102.352-102.355s102.352 45.896 102.352 102.355c0 56.457-45.895 102.352-102.352 102.352zM184.349 325.1c-33.797 0-61.449 27.654-61.449 61.451s27.652 61.45 61.449 61.45c33.798 0 61.45-27.653 61.45-61.45s-27.652-61.451-61.45-61.451zM798.843 488.903c-56.458 0-102.354-45.896-102.354-102.352 0-56.459 45.896-102.355 102.354-102.355s102.354 45.896 102.354 102.355c0 56.457-45.896 102.352-102.354 102.352zM798.843 325.1c-33.797 0-61.45 27.654-61.45 61.451s27.653 61.45 61.45 61.45c33.797 0 61.45-27.653 61.45-61.45s-27.653-61.451-61.45-61.451zM635.044 366.003h-286.89c-11.33 0-20.547-9.218-20.547-20.547 0-11.331 9.218-20.547 20.547-20.547h286.701c11.331 0 20.547 9.216 20.547 20.547 0 11.329-9.027 20.547-20.357 20.547zM635.044 448h-286.89c-11.33 0-20.547-9.218-20.547-20.547s9.218-20.548 20.547-20.548h286.701c11.331 0 20.547 9.218 20.547 20.548s-9.027 20.547-20.357 20.547z" />
<glyph unicode="&#xe904;" glyph-name="collection" d="M512.006 256c-11.040 0-20-8.962-20-20s8.96-20 20-20c11.038 0 20 8.962 20 20s-8.962 20-20 20zM1024.002 555.867c0.048 7.726-4.358 14.797-11.32 18.149l-332 160c-5.578 2.686-12.086 2.64-17.626-0.125l-71.054-35.531v241.64c0 11.047-8.954 20-20 20h-120c-11.048 0-20-8.953-20-20v-241.64l-71.056 35.531c-5.538 2.765-12.054 2.811-17.624 0.125l-332.001-160c-6.969-3.36-11.367-10.422-11.32-18.149 0.055-7.734 4.555-14.742 11.57-18l133.008-61.867-133.008-61.867c-7.008-3.258-11.516-10.266-11.57-17.992-0.047-7.734 4.352-14.797 11.32-18.157l160.679-77.437v-184.547c0-7.57 4.282-14.499 11.056-17.883l320-160c0.187-0.093 0.382-0.155 0.57-0.242 0.306-0.149 0.61-0.274 0.923-0.398 0.499-0.203 1.008-0.382 1.515-0.539 0.304-0.094 0.602-0.195 0.914-0.274 0.555-0.141 1.11-0.25 1.672-0.344 0.282-0.046 0.555-0.109 0.837-0.149 0.757-0.093 1.507-0.147 2.266-0.155 0.093 0 0.171-0.016 0.266-0.016 0.851 0 1.702 0.070 2.554 0.179 0.211 0.024 0.422 0.070 0.634 0.11 0.624 0.101 1.25 0.226 1.867 0.39 0.282 0.070 0.562 0.163 0.843 0.25 0.539 0.165 1.062 0.352 1.594 0.563 0.306 0.125 0.61 0.25 0.907 0.39 0.179 0.085 0.358 0.141 0.531 0.226l320 160c6.773 3.392 11.054 10.314 11.054 17.891v184.539l160.68 77.437c6.97 3.36 11.376 10.43 11.32 18.157-0.054 7.734-4.554 14.742-11.57 18l-133.008 61.867 133.008 61.867c7.016 3.258 11.515 10.266 11.57 18zM472.002 920h80v-284c0-11.038 8.954-20 20-20h20.008l-80.008-106.672-80.008 106.672h20.008c11.046 0 20 8.962 20 20v284zM512.002 338.36l-275.282 137.64 182.016 91.008 77.266-103.008c3.781-5.038 9.702-8 16-8 6.296 0 12.219 2.962 16 8l77.258 103.008 182.016-91.008-275.274-137.64zM351.837 693.718l75.446-37.718h-35.282c-7.579 0-14.501-4.282-17.891-11.054-3.382-6.774-2.656-14.883 1.891-20.946l18.344-24.469-202.658-101.328-124.953 58.117 285.102 137.398zM191.688 453.797l275.595-137.797-115.446-57.718-285.102 137.398 124.953 58.117zM812.002 128.366l-280-140v167.634c0 11.046-8.954 20-20 20s-20-8.954-20-20v-167.634l-280.002 140v152.907l131.314-63.29c5.578-2.686 12.086-2.64 17.632 0.125l151.056 75.531 151.054-75.531c5.539-2.765 12.048-2.811 17.626-0.125l131.32 63.29v-152.907zM672.166 258.282l-115.446 57.718 275.595 137.797 124.952-58.117-285.101-137.398zM832.315 498.203l-202.666 101.336 18.352 24.469c4.539 6.054 5.274 14.163 1.883 20.946-3.384 6.773-10.314 11.046-17.883 11.046h-35.282l75.438 37.726 285.102-137.406-124.946-58.117z" />
<glyph unicode="&#xe905;" glyph-name="d-arrow-left" d="M554.992 925.594c11.881 0.024 21.529-9.595 21.552-21.474 0.010-5.728-2.265-11.222-6.32-15.27l-458.083-458.041 458.083-458.039c8.255-8.545 8.017-22.164-0.529-30.419-8.337-8.051-21.553-8.051-29.889 0l-473.269 473.272c-8.403 8.4-8.403 22.017 0 30.419l473.268 473.269c4.032 4.024 9.493 6.283 15.188 6.283zM942.213 925.594c11.881 0.024 21.529-9.595 21.551-21.474 0.010-5.728-2.265-11.222-6.321-15.27l-458.083-458.041 458.083-458.039c8.412-8.412 8.412-22.049 0-30.461s-22.049-8.412-30.461 0l-473.272 473.272c-8.398 8.4-8.398 22.017 0 30.419l473.272 473.269c4.036 4.048 9.515 6.325 15.231 6.325z" />
<glyph unicode="&#xe906;" glyph-name="home" d="M1013.051 510.371l-476.12 439.925c-13.869 12.939-35.992 12.939-49.862 0l-476.102-439.907c-7.009-6.474-10.967-15.395-10.967-24.718 0-18.974 16.073-34.355 35.898-34.355h63.271v-480.96c0-18.974 16.071-34.355 35.898-34.355h251.289c19.827 0 35.898 15.381 35.898 34.355v274.834h179.491v-274.834c0-18.974 16.072-34.355 35.899-34.355h251.288c19.827 0 35.899 15.381 35.899 34.355v480.96h63.27c9.733 0 19.046 3.782 25.811 10.478 13.778 13.643 13.392 35.392-0.862 48.578zM924.832 485.67c-19.827 0-35.899-15.381-35.899-34.355v-480.96h-251.288v274.834c0 18.974-16.072 34.355-35.899 34.355h-179.491c-19.827 0-35.898-15.381-35.898-34.355v-274.834h-251.289v480.96c0 18.974-16.071 34.355-35.898 34.355h-63.271l476.102 439.908 476.282-439.908h-63.45z" />
<glyph unicode="&#xe907;" glyph-name="menu" horiz-adv-x="288" d="M143.874 672.256c-79.332 0-143.874 64.542-143.874 143.872 0.002 79.33 64.542 143.872 143.874 143.872 79.329 0 143.87-64.542 143.87-143.872 0.002-79.331-64.541-143.872-143.87-143.872zM143.874 920c-57.276 0-103.874-46.596-103.874-103.872s46.598-103.872 103.874-103.872c57.276 0 103.87 46.597 103.87 103.872s-46.594 103.872-103.87 103.872zM143.874 304.128c-79.332 0-143.874 64.542-143.874 143.872s64.542 143.872 143.874 143.872c40.833 0 79.892-17.45 107.161-47.875 7.374-8.227 6.683-20.87-1.541-28.243-8.227-7.371-20.872-6.68-28.243 1.547-19.693 21.97-47.896 34.571-77.377 34.571-57.276 0-103.874-46.595-103.874-103.872 0-57.275 46.598-103.872 103.874-103.872 29.48 0 57.684 12.602 77.377 34.573 7.376 8.227 20.021 8.914 28.243 1.544 8.224-7.374 8.915-20.016 1.541-28.243-27.267-30.424-66.328-47.874-107.161-47.874zM267.746 429.624c11.046 0 20 8.954 20 20s-8.954 20-20 20c-11.045 0-20-8.954-20-20s8.955-20 20-20zM143.874-64c-79.332 0-143.874 64.542-143.874 143.872 0 79.333 64.542 143.872 143.874 143.872 79.329 0 143.87-64.542 143.87-143.872 0.002-79.33-64.541-143.872-143.87-143.872zM143.874 183.744c-57.276 0-103.874-46.595-103.874-103.872 0-57.275 46.6-103.872 103.874-103.872s103.87 46.597 103.87 103.872c0 57.277-46.594 103.872-103.87 103.872z" />
<glyph unicode="&#xe908;" glyph-name="search" d="M396.288 826.439c-143.69 0-260.189-114.25-260.189-255.197 0-140.918 116.5-255.168 260.189-255.168 143.662 0 260.162 114.25 260.162 255.168 0 0 0 0.058 0 0.086-0.293 140.774-116.616 254.825-260.162 255.111zM396.288 343.541c-128.285 0-232.298 102.005-232.298 227.787 0 125.81 104.013 227.786 232.298 227.786 128.258 0 232.269-101.976 232.269-227.786-0.262-125.696-104.128-227.53-232.269-227.787zM726.003 356.789c120.992 178.715 71.306 419.749-110.926 538.349-182.202 118.657-427.979 69.93-548.942-108.729-120.992-178.715-71.306-419.778 110.926-538.406 123.152-80.173 281.635-86.411 411-16.109l273.96-267.158c35.624-36.882 95.026-38.483 132.662-3.518 37.637 34.936 39.242 93.163 3.618 130.102-1.166 1.202-2.363 2.403-3.618 3.547l-268.68 261.922zM396.347 210.72c-203.152-0.085-367.936 161.434-367.995 360.722-0.029 199.23 164.64 360.807 367.819 360.893 203.181 0.029 367.965-161.461 367.995-360.722 0-0.114 0-0.171 0-0.285-0.205-199.174-164.786-360.608-367.878-360.779l0.059 0.171zM975.019-15.722c-25.733-25.093-67.309-25.093-93.070 0l-269.352 262.208c37.054 23.806 69.76 53.506 96.835 87.842l265.528-258.832c25.704-25.235 25.704-66.152 0-91.389l0.059 0.171z" />
<glyph unicode="&#xe909;" glyph-name="shower" d="M972.8 448.204h-836.266v375.316c0 56.531 45.846 102.359 102.4 102.359h34.134v-69.946c-39.736-8.109-68.275-43.053-68.266-83.592 0-9.423 7.64-17.059 17.066-17.059h136.534c9.426 0 17.066 7.636 17.066 17.059 0.008 40.54-28.53 75.485-68.266 83.592v87.007c0 9.422-7.642 17.059-17.066 17.059h-51.2c-75.408 0-136.536-61.104-136.536-136.479v-375.316h-51.2c-28.276 0-51.2-22.915-51.2-51.18s22.922-51.18 51.2-51.18c4.608-124.194 57.856-255.9 137.558-294.965-25.77-27.507-24.348-70.694 3.172-96.454 27.522-25.76 70.723-24.339 96.492 3.174 20.67 22.061 24.352 55.091 9.050 81.165h428.889c-6.138-10.33-9.434-22.099-9.562-34.118-0.224-37.683 30.157-68.416 67.859-68.64s68.448 30.144 68.672 67.834c0.102 17.459-6.49 34.291-18.432 47.040 79.706 39.066 132.954 170.771 137.901 294.963 28.275 0 51.2 22.915 51.2 51.18 0 28.267-22.918 51.181-51.2 51.181zM307.124 820.698c14.642-5.148 26.158-16.659 31.308-31.295h-96.596c9.382 26.663 38.614 40.676 65.288 31.295zM563.201 414.084h238.936v-187.658h-238.936v187.658zM34.134 397.025c0 9.422 7.64 17.059 17.066 17.059h477.867v-34.12h-477.867c-9.426 0.002-17.066 7.639-17.066 17.061zM238.934-29.472c-18.852 0-34.134 15.277-34.134 34.118 0 18.848 15.282 34.125 34.134 34.125s34.134-15.277 34.134-34.125c0-18.842-15.283-34.118-34.134-34.118zM785.069-29.472c-18.854 0-34.131 15.277-34.131 34.118 0 18.848 15.277 34.125 34.131 34.125s34.138-15.277 34.138-34.125c0-18.842-15.29-34.118-34.138-34.118zM785.069 72.89h-546.134c-75.946 0-147.626 130.336-153.6 272.956h443.734v-170.6c0-9.421 7.642-17.056 17.066-17.056 9.426 0 17.066 7.635 17.066 17.056v17.062h34.134v-17.062c0-9.421 7.64-17.056 17.066-17.056s17.066 7.635 17.066 17.056v17.062h34.132v-17.062c0-9.421 7.642-17.056 17.069-17.056 9.421 0 17.062 7.635 17.062 17.056v17.062h34.138v-17.062c0-9.421 7.642-17.056 17.062-17.056 9.427 0 17.069 7.635 17.069 17.056v17.062h34.131v-17.062c0-9.421 7.642-17.056 17.069-17.056s17.069 7.635 17.069 17.056v170.6h102.4c-5.971-142.62-77.651-272.956-153.6-272.956zM972.8 379.965h-136.531v34.12h136.531c9.427 0 17.069-7.639 17.069-17.059s-7.642-17.061-17.069-17.061zM307.203 704.103c0 9.422-7.642 17.059-17.066 17.059s-17.066-7.637-17.066-17.059v-17.059c0-9.422 7.64-17.059 17.066-17.059s17.066 7.637 17.066 17.059v17.059zM307.203 618.802c0 9.423-7.642 17.059-17.066 17.059s-17.066-7.636-17.066-17.059v-17.059c0-9.422 7.64-17.059 17.066-17.059s17.066 7.637 17.066 17.059v17.059zM290.136 550.563c-9.426 0-17.066-7.639-17.066-17.059v-17.059c0-9.422 7.64-17.059 17.066-17.059s17.066 7.637 17.066 17.059v17.059c0 9.42-7.64 17.059-17.066 17.059zM375.468 704.103c0 9.422-7.64 17.059-17.066 17.059s-17.066-7.637-17.066-17.059v-17.059c0-9.422 7.64-17.059 17.066-17.059s17.066 7.637 17.066 17.059v17.059zM375.468 618.802c0 9.423-7.64 17.059-17.066 17.059s-17.066-7.636-17.066-17.059v-17.059c0-9.422 7.64-17.059 17.066-17.059s17.066 7.637 17.066 17.059v17.059zM358.402 550.563c-9.426 0-17.066-7.639-17.066-17.059v-17.059c0-9.422 7.64-17.059 17.066-17.059s17.066 7.637 17.066 17.059v17.059c0.002 9.42-7.64 17.059-17.066 17.059zM238.937 704.103c0 9.422-7.64 17.059-17.066 17.059s-17.066-7.637-17.066-17.059v-17.059c0-9.422 7.64-17.059 17.066-17.059s17.066 7.637 17.066 17.059v17.059zM238.937 618.802c0 9.423-7.64 17.059-17.066 17.059s-17.066-7.636-17.066-17.059v-17.059c0-9.422 7.64-17.059 17.066-17.059s17.066 7.637 17.066 17.059v17.059zM221.871 550.563c-9.426 0-17.066-7.639-17.066-17.059v-17.059c0-9.422 7.64-17.059 17.066-17.059s17.066 7.637 17.066 17.059v17.059c0 9.42-7.642 17.059-17.066 17.059z" />
<glyph unicode="&#xe90a;" glyph-name="user" d="M874.041 298.041c-55.768 55.762-122.143 97.044-194.563 122.035 77.565 53.422 128.521 142.828 128.521 243.925 0 163.213-132.784 295.999-295.999 295.999s-296-132.786-296-295.999c0-101.097 50.958-190.504 128.525-243.925-72.421-24.991-138.797-66.273-194.563-122.035-96.704-96.708-149.962-225.28-149.962-362.041h80c0 238.205 193.794 432 432 432s432-193.795 432-432h80c0 136.761-53.259 265.333-149.959 362.041zM512 448c-119.103 0-216.001 96.896-216.001 216.001 0 119.103 96.899 215.999 216.001 215.999s216.001-96.896 216.001-215.999c0-119.105-96.899-216.001-216.001-216.001z" />
<glyph unicode="&#xe90b;" glyph-name="check-o" d="M349.867 102.4c-34.133 0-72.533 12.8-98.133 38.4v0l-226.133 213.333c-34.133 34.133-34.133 81.067 0 115.2l25.6 25.6c34.133 34.133 81.067 34.133 115.2 0l115.2-110.933c38.4-34.133 102.4-34.133 136.533 0l443.733 409.6c34.133 34.133 81.067 34.133 115.2 0l25.6-25.6c12.8-12.8 21.333-34.133 21.333-55.467s-8.533-42.667-25.6-59.733l-554.667-516.267c-21.333-21.333-55.467-34.133-93.867-34.133zM281.6 170.667c38.4-34.133 102.4-34.133 136.533 0l554.667 516.267c4.267 8.533 8.533 17.067 8.533 25.6s-4.267 21.333-12.8 29.867l-25.6 25.6c-17.067 17.067-38.4 17.067-55.467 0l-443.733-409.6c-51.2-51.2-136.533-51.2-192 0l-115.2 110.933c-17.067 17.067-38.4 17.067-55.467 0l-25.6-25.6c-8.533-8.533-12.8-21.333-12.8-29.867s4.267-21.333 12.8-29.867l226.133-213.333z" />
<glyph unicode="&#xe90c;" glyph-name="spinner" d="M384 832c0 70.688 57.312 128 128 128s128-57.312 128-128c0-70.688-57.312-128-128-128s-128 57.312-128 128zM791.008 448c0 0 0 0 0 0 0 57.984 47.008 104.992 104.992 104.992s104.992-47.008 104.992-104.992c0 0 0 0 0 0 0-57.984-47.008-104.992-104.992-104.992s-104.992 47.008-104.992 104.992zM688.416 176.48c0 52.512 42.592 95.104 95.104 95.104s95.104-42.592 95.104-95.104c0-52.512-42.592-95.104-95.104-95.104s-95.104 42.592-95.104 95.104zM425.856 64c0 47.584 38.56 86.144 86.144 86.144s86.144-38.56 86.144-86.144c0-47.584-38.56-86.144-86.144-86.144s-86.144 38.56-86.144 86.144zM162.464 176.48c0 43.072 34.944 78.016 78.016 78.016s78.016-34.944 78.016-78.016c0-43.072-34.944-78.016-78.016-78.016s-78.016 34.944-78.016 78.016zM57.344 448c0 39.040 31.648 70.656 70.656 70.656s70.656-31.648 70.656-70.656c0-39.040-31.648-70.656-70.656-70.656s-70.656 31.648-70.656 70.656zM176.48 719.52c0 0 0 0 0 0 0 35.36 28.64 64 64 64s64-28.64 64-64c0 0 0 0 0 0 0-35.36-28.64-64-64-64s-64 28.64-64 64zM899.456 719.52c0-64.032-51.904-115.936-115.936-115.936s-115.936 51.904-115.936 115.936c0 64.032 51.904 115.936 115.936 115.936s115.936-51.904 115.936-115.936z" />
<glyph unicode="&#xe90d;" glyph-name="check" d="M348.8 102.4c-35.2 0-73.6 12.8-99.2 38.4v0l-227.2 214.4c-35.2 35.2-35.2 80 0 115.2l25.6 25.6c35.2 35.2 80 35.2 115.2 0l118.4-112c38.4-35.2 102.4-35.2 137.6 0l441.6 409.6c35.2 35.2 80 35.2 115.2 0l25.6-25.6c12.8-12.8 22.4-35.2 22.4-54.4s-9.6-41.6-25.6-60.8l-553.6-515.2c-22.4-22.4-57.6-35.2-96-35.2v0z" />
<glyph unicode="&#xe90e;" glyph-name="close" d="M605.814 448.003l398.724 398.737c25.952 25.936 25.952 67.871 0 93.807-25.933 25.936-67.872 25.936-93.805 0l-398.739-398.737-398.725 398.737c-25.949 25.936-67.872 25.936-93.808 0-25.948-25.936-25.948-67.871 0-93.807l398.725-398.737-398.725-398.736c-25.948-25.939-25.948-67.872 0-93.811 12.926-12.934 29.921-19.437 46.904-19.437s33.966 6.502 46.904 19.437l398.725 398.739 398.739-398.739c12.934-12.934 29.92-19.437 46.899-19.437 16.986 0 33.971 6.502 46.906 19.437 25.952 25.939 25.952 67.872 0 93.811l-398.724 398.736z" />
<glyph unicode="&#xe90f;" glyph-name="trash" d="M846.848 830.976h-175.104v31.744c0 53.248-43.008 96.256-96.256 95.232h-126.976c-53.248 0-95.232-43.008-95.232-95.232v-31.744h-176.128c-44.032 0-79.872-35.84-79.872-79.872v-111.616c0-17.408 14.336-31.744 31.744-31.744h17.408l27.648-578.56c2.048-51.2 44.032-91.136 95.232-91.136h484.352c51.2 0 93.184 39.936 95.232 91.136l27.648 578.56h17.408c17.408 0 31.744 14.336 31.744 31.744v111.616c1.024 44.032-34.816 79.872-78.848 79.872zM415.744 862.72c0 17.408 14.336 31.744 31.744 31.744h128c17.408 0 31.744-14.336 31.744-31.744v-31.744h-191.488v31.744zM160.768 751.104c0 9.216 7.168 16.384 16.384 16.384h670.72c9.216 0 16.384-7.168 16.384-16.384v-79.872h-703.488v79.872zM786.432 31.232c-1.024-17.408-14.336-30.72-31.744-30.72h-485.376c-17.408 0-30.72 13.312-31.744 30.72l-27.648 575.488h603.136l-26.624-575.488zM512 65.024c17.408 0 31.744 14.336 31.744 31.744v414.72c-1.024 17.408-15.36 31.744-33.792 30.72-16.384-1.024-29.696-14.336-30.72-30.72v-414.72c1.024-17.408 15.36-31.744 32.768-31.744zM671.744 65.024c17.408 0 31.744 14.336 31.744 31.744v0 414.72c1.024 17.408-13.312 32.768-30.72 33.792s-32.768-13.312-33.792-30.72c0-1.024 0-2.048 0-3.072v-414.72c1.024-17.408 15.36-31.744 32.768-31.744zM352.256 65.024c17.408 0 31.744 14.336 31.744 31.744v414.72c-1.024 17.408-15.36 31.744-33.792 30.72-16.384-1.024-29.696-14.336-30.72-30.72v-414.72c1.024-17.408 15.36-31.744 32.768-31.744z" />
<glyph unicode="&#xe910;" glyph-name="loop" d="M889.68 793.68c-93.608 102.216-228.154 166.32-377.68 166.32-282.77 0-512-229.23-512-512h96c0 229.75 186.25 416 416 416 123.020 0 233.542-53.418 309.696-138.306l-149.696-149.694h352v352l-134.32-134.32zM928 448c0-229.75-186.25-416-416-416-123.020 0-233.542 53.418-309.694 138.306l149.694 149.694h-352v-352l134.32 134.32c93.608-102.216 228.154-166.32 377.68-166.32 282.77 0 512 229.23 512 512h-96z" />
<glyph unicode="&#xe911;" glyph-name="edit" d="M1024.027 803.992c-2.143-8.651-3.857-17.435-6.481-25.925-7.338-23.729-20.89-43.548-38.406-61.037-157.695-157.534-315.229-315.229-473.112-472.576-6.803-6.776-15.802-12.615-24.854-15.695-69.233-23.649-138.733-46.441-208.126-69.634-13.311-4.446-26.166-5.196-38.165 3.321-14.248 10.151-18.48 26.247-12.052 45.584 17.917 53.967 37.844 107.371 53.351 162.007 12.24 43.147 35.112 76.705 66.929 108.014 144.625 142.295 287.67 286.251 430.796 430.046 26.166 26.3 54.984 46.039 92.533 50.753 0.562 0.080 1.071 0.723 1.607 1.125 10.659 0 21.346 0 32.005 0 1.5-0.589 2.946-1.473 4.499-1.768 56.136-9.883 93.524-41.968 112.62-95.426 3.080-8.651 4.633-17.864 6.883-26.809-0.027-10.633-0.027-21.292-0.027-31.978zM313.917 249.863c47.539 15.855 93.015 30.934 138.358 46.36 3.83 1.312 7.204 4.66 10.177 7.633 154.428 154.32 308.775 308.721 463.122 463.122 3.75 3.75 7.338 7.74 10.686 11.891 28.497 35.38 12.615 89.641-30.559 103.782-29.166 9.561-53.217 0.402-74.295-20.703-147.437-147.625-294.794-295.357-442.928-442.285-19.042-18.882-32.567-39.049-39.986-64.787-10.070-34.71-22.524-68.751-34.576-105.014zM0.027 411.79c0 120.976-0.107 241.979 0.054 362.956 0.080 55.707 36.183 99.791 89.989 110.129 7.794 1.5 15.909 1.821 23.863 1.821 142.991 0.107 285.983 0.107 428.948 0.054 24.345 0 39.477-11.999 41.7-32.567 2.25-20.89-12.882-38.915-33.826-40.2-3.991-0.241-8.008-0.161-11.999-0.161-140.313 0-280.653 0-420.966 0-31.068 0-44.539-13.364-44.539-44.352-0.027-238.632-0.027-477.29 0-715.922 0-31.202 13.123-44.271 44.405-44.271 214.313-0.027 428.626 0.027 642.939-0.080 13.123 0 25.175 1.794 34.523 12.213 7.928 8.838 9.347 19.364 9.347 30.666-0.107 116.664-0.080 233.302-0.027 349.966 0 5.303 0.134 10.713 1.071 15.909 3.080 17.328 17.65 29.648 34.924 29.996 17.248 0.321 32.3-11.436 36.076-28.63 0.991-4.499 1.232-9.24 1.259-13.873 0.054-118.325 0.134-236.65 0.027-354.975-0.054-67.224-47.378-114.415-114.629-114.441-216.322-0.054-432.617-0.054-648.939 0-67.144 0.027-114.147 47.325-114.174 114.79-0.054 120.334-0.027 240.64-0.027 360.974z" />
<glyph unicode="&#xe912;" glyph-name="d-arrow" d="M469.008-29.594c-11.881-0.024-21.529 9.595-21.552 21.474-0.010 5.728 2.265 11.222 6.32 15.27l458.083 458.041-458.083 458.039c-8.255 8.545-8.017 22.164 0.529 30.419 8.337 8.051 21.553 8.051 29.889 0l473.269-473.272c8.403-8.4 8.403-22.017 0-30.419l-473.268-473.269c-4.032-4.024-9.493-6.283-15.188-6.283zM81.787-29.594c-11.881-0.024-21.529 9.595-21.551 21.474-0.010 5.728 2.265 11.222 6.321 15.27l458.083 458.041-458.083 458.039c-8.412 8.412-8.412 22.049 0 30.461s22.049 8.412 30.461 0l473.272-473.272c8.398-8.4 8.398-22.017 0-30.419l-473.272-473.269c-4.036-4.048-9.515-6.325-15.231-6.325z" />
<glyph unicode="&#xe913;" glyph-name="upload" d="M766.492 757.871c-14.777 0-29.534-1.279-44.108-3.817-53.19 81.472-143.712 131.062-242.196 131.062-123.163 0-231.611-77.538-272.392-191.571-116.116-9.154-207.797-106.569-207.797-224.995 0-124.453 101.249-225.701 225.698-225.701h136.534v-197.136c0-19.235 15.595-34.83 34.83-34.83h229.877c19.235 0 34.83 15.595 34.83 34.83v197.136h104.721c141.995 0 257.511 115.516 257.511 257.511s-115.512 257.511-257.508 257.511zM626.945 425.36c-19.239 0-34.833-15.598-34.833-34.83v-309.987h-160.217v309.987c0 19.235-15.595 34.83-34.83 34.83h-30.851l145.791 145.791 145.791-145.791h-30.851zM766.492 312.509h-104.721v43.191h80.11c14.088 0 26.79 8.485 32.182 21.501 5.389 13.016 2.407 27.996-7.551 37.961l-229.877 229.877c-13.605 13.598-35.654 13.598-49.259 0l-229.877-229.877c-9.961-9.964-12.94-24.942-7.551-37.961 5.392-13.012 18.091-21.501 32.182-21.501h80.11v-43.191h-136.534c-86.040 0-156.038 70.001-156.038 156.042s69.998 156.038 156.038 156.038c2.193 0 4.368-0.083 6.544-0.169 16.481-0.748 31.079 10.223 35.168 26.145 24.9 97.084 112.402 164.892 212.779 164.892 81.662 0 156.124-44.932 194.333-117.264 7.689-14.557 24.514-21.732 40.346-17.229 16.856 4.81 34.223 7.244 51.624 7.244 103.583 0 187.851-84.268 187.851-187.851s-84.279-187.848-187.862-187.848z" />
<glyph unicode="&#xe914;" glyph-name="pdf" d="M320-64c-19.2 3.2-35.2 9.6-48 22.4-16 16-22.4 38.4-22.4 60.8 0 54.4 0 105.6 0 160 0 3.2 0 6.4 0 12.8-3.2 0-6.4 0-12.8 0-48 0-92.8 0-140.8 0-41.6 0-64 22.4-64 64 0 92.8 0 188.8 0 281.6 0 41.6 25.6 64 67.2 64 44.8 0 92.8 0 137.6 0 3.2 0 6.4 0 12.8 0 0 3.2 0 9.6 0 12.8 0 86.4 0 172.8 0 259.2 0 41.6 22.4 70.4 57.6 80 9.6 6.4 16 6.4 25.6 6.4 124.8 0 252.8 0 377.6 0 9.6 0 19.2-3.2 25.6-9.6 83.2-86.4 166.4-172.8 249.6-259.2 6.4-9.6 12.8-16 12.8-28.8 0-214.4 0-425.6 0-640 0-35.2-12.8-60.8-44.8-76.8-6.4-3.2-16-6.4-22.4-9.6-204.8 0-409.6 0-611.2 0zM288 192c0-3.2 0-3.2 0-6.4 0-57.6 0-112 0-169.6 0-3.2 0-9.6 0-12.8 6.4-19.2 19.2-28.8 44.8-28.8 192 0 384 0 579.2 0 32 0 44.8 16 44.8 44.8 0 204.8 0 406.4 0 611.2 0 3.2 0 6.4 0 12.8-6.4 0-9.6 0-12.8 0-76.8 0-153.6 0-230.4 0-25.6 0-32 3.2-32 32 0 76.8 0 153.6 0 230.4 0 3.2 0 6.4 0 12.8-3.2 0-6.4 0-9.6 0-112 0-224 0-339.2 0-28.8 3.2-44.8-12.8-44.8-44.8 0-86.4 0-169.6 0-256 0-3.2 0-6.4 0-9.6 6.4 0 9.6 0 12.8 0 105.6 0 208 0 313.6 0 41.6 0 67.2-25.6 67.2-67.2 0-92.8 0-188.8 0-281.6 0-41.6-25.6-67.2-67.2-67.2-105.6 0-208 0-313.6 0-3.2 0-6.4 0-12.8 0zM358.4 230.4c86.4 0 172.8 0 259.2 0 22.4 0 28.8 6.4 28.8 28.8 0 92.8 0 185.6 0 278.4 0 22.4-6.4 28.8-25.6 28.8-172.8 0-345.6 0-515.2 0-22.4 0-25.6-6.4-25.6-28.8 0-92.8 0-185.6 0-278.4 0-22.4 6.4-28.8 28.8-28.8 76.8 0 163.2 0 249.6 0zM934.4 684.8c-70.4 73.6-140.8 147.2-211.2 220.8 0-76.8 0-147.2 0-220.8 70.4 0 140.8 0 211.2 0zM307.2 313.6c0 54.4 0 108.8 0 166.4 0 0 0 0 3.2 0 28.8 0 57.6 0 83.2-3.2s41.6-19.2 48-44.8c9.6-28.8 9.6-57.6-3.2-86.4-9.6-19.2-25.6-32-44.8-35.2-28.8 0-57.6 3.2-86.4 3.2zM339.2 448c0-35.2 0-73.6 0-108.8 12.8 0 25.6 0 38.4 0 16 0 25.6 9.6 28.8 25.6s3.2 32 0 48c-3.2 19.2-12.8 32-28.8 35.2-9.6 3.2-22.4 0-38.4 0zM182.4 374.4c0-22.4 0-41.6 0-64-12.8 0-22.4 0-32 0 0 57.6 0 112 0 169.6 6.4 0 12.8 0 19.2 0 22.4 0 44.8 0 67.2-3.2 19.2 0 35.2-12.8 38.4-35.2 6.4-32-3.2-67.2-51.2-70.4-12.8 3.2-25.6 3.2-41.6 3.2zM182.4 403.2c16 0 28.8 0 41.6 3.2 9.6 0 16 9.6 16 22.4 3.2 9.6-3.2 19.2-16 19.2s-25.6 0-41.6 0c0-12.8 0-28.8 0-44.8zM592 480c0-9.6 0-19.2 0-28.8-25.6 0-54.4 0-80 0 0-12.8 0-25.6 0-41.6 22.4 0 44.8 0 70.4 0 0-9.6 0-19.2 0-28.8-22.4 0-44.8 0-70.4 0 0-25.6 0-48 0-70.4-12.8 0-22.4 0-32 0 0 54.4 0 112 0 169.6 35.2 0 73.6 0 112 0z" />
<glyph unicode="&#xe915;" glyph-name="plus" d="M1003.602 554.356h-385.248v385.246c0 11.266-9.136 20.398-20.4 20.398h-171.912c-11.264 0-20.398-9.132-20.398-20.398v-385.246h-385.246c-11.264 0-20.398-9.134-20.398-20.4v-171.912c0-11.266 9.134-20.398 20.398-20.398h385.248v-385.248c0-11.266 9.134-20.398 20.398-20.398h171.912c11.264 0 20.398 9.132 20.398 20.398v385.248h385.246c11.264 0 20.398 9.132 20.398 20.398v171.912c0.002 11.266-9.132 20.4-20.396 20.4zM983.204 382.444h-385.25c-11.264 0-20.398-9.132-20.398-20.398v-385.248h-131.114v385.248c0 11.266-9.134 20.398-20.398 20.398h-385.248v131.114h385.248c11.264 0 20.398 9.132 20.398 20.398v385.248h131.114v-385.246c0-11.266 9.134-20.398 20.398-20.398h385.246v-131.116zM850.614 443.92h-206.134c-11.264 0-20.398-9.132-20.398-20.398s9.134-20.398 20.398-20.398h206.134c11.264 0 20.398 9.132 20.398 20.398s-9.134 20.398-20.398 20.398zM932.208 443.92h-13.802c-11.264 0-20.398-9.132-20.398-20.398s9.134-20.398 20.398-20.398h13.802c11.264 0 20.398 9.132 20.398 20.398s-9.134 20.398-20.398 20.398z" />
</font>
</defs>
</svg>
