<?xml version="1.0" encoding="utf-8"?>
<!-- Generator: Adobe Illustrator 23.0.2, SVG Export Plug-In . SVG Version: 6.00 Build 0)  -->
<svg version="1.1" id="Layer_1" xmlns="http://www.w3.org/2000/svg" xmlns:xlink="http://www.w3.org/1999/xlink" x="0px" y="0px"
	 viewBox="0 0 799.39 729.07" style="enable-background:new 0 0 799.39 729.07;" xml:space="preserve">
<style type="text/css">
	.st0{fill:#EBCD4B;}
	.st1{fill:#B3322D;}
	.st2{fill:#882623;}
	.st3{fill:#F1D84B;}
	.st4{fill:none;stroke:#882623;stroke-width:7;stroke-miterlimit:10;}
	.st5{fill:#242222;}
	.st6{fill:#231F20;}
	.st7{fill:#282828;}
	.st8{fill:#1E1C1D;}
	.st9{fill:#F3F3F3;}
	.st10{fill:#292621;}
	.st11{fill:#5C3D20;}
	.st12{fill:#020403;}
	.st13{fill:#FFFFFF;}
	.st14{fill:url(#SVGID_1_);}
	.st15{fill:url(#SVGID_2_);}
</style>
<path class="st0" d="M402.54,415.33c6.72-8.25,10.98-20.74,16.32-30.29c9.7-17.33,20.37-34.17,32.23-50.1
	c27.09-36.39,62.96-71.83,110.14-78.88c47.34-7.07,98.06,3.14,142.48,19.55c7.92,2.92,15.87,6.01,23.44,9.76
	c0,0,14.3-182.13-182.81-259.74C443.43-14.11,328.49-6.89,232.08,42.11c-41.22,20.95-76.92,47.03-104.19,84.79
	c-16.54,22.9-29.46,48.41-38.04,75.32c-8.17,25.59-17.22,58.14-10.69,84.86c-0.45-1.84,27.38-12.27,29.2-12.96
	c23.53-8.92,48.47-15.6,73.58-17.96c50.03-4.7,98.55,4.92,136.75,39.78c13.36,12.2,25.63,26.16,36.68,40.47
	c9.33,12.08,17.83,24.8,25.54,37.98C388.41,387.23,393.6,403.92,402.54,415.33"/>
<path class="st1" d="M402.27,376.44c38.41-69.3,103.27-146.11,190.06-140.08c38.37,2.67,78.99,6.4,114.91,21.61
	c0,0-9.19-188.43-220.6-231.32c-211.4-42.89-376.85,77.62-389.11,228.77c0.26-3.21,30.82-9.83,33.55-10.53
	c24.91-6.38,50.43-9.94,76.16-10.3C294.19,233.37,364.15,303.75,402.27,376.44"/>
<path class="st2" d="M468.77,152.27c2.87,52.79-46.5,87.22-66.3,90.55c-17.14-2.47-70.91-35.42-67.48-88.17
	c3.4-52.43,67.48-103.27,67.48-103.27S466.04,102.23,468.77,152.27"/>
<path class="st3" d="M402.46,242.82c-17.14-2.47-70.9-35.42-67.48-88.17c1.05-16.08,7.79-32,16.65-46.36l48.54-27.68l53,27.68
	c8.45,13.79,14.78,28.93,15.6,43.98C471.64,205.05,422.27,239.49,402.46,242.82"/>
<path class="st4" d="M402.46,242.82c-17.14-2.47-70.9-35.42-67.48-88.17c1.05-16.08,7.79-32,16.65-46.36l48.54-27.68l53,27.68
	c8.45,13.79,14.78,28.93,15.6,43.98C471.64,205.05,422.27,239.49,402.46,242.82z"/>
<path class="st5" d="M439.64,157.16c0,20.87-16.92,37.79-37.79,37.79c-20.87,0-37.79-16.92-37.79-37.79
	c0-20.87,16.92-37.79,37.79-37.79C422.73,119.38,439.64,136.29,439.64,157.16"/>
<path class="st6" d="M113.87,306.26c2.33-1.25,4.59-4.59,6.58-6.35c5.93-5.27,12.34-10.02,19.07-14.23
	c43.59-27.26,97.62-21.27,141.53,2.28c4.94,2.65,9.81,5.35,14.48,8.47c4.84,3.23,17.3,11.76,13.75,19.45
	c-2.04,4.43-11.32,4.68-20.85,0.77c-9.53-3.92-51.83-33.96-99.49-29.53C141.29,291.54,113.88,306.26,113.87,306.26"/>
<path class="st6" d="M688.11,306.95c0,0-51.77-57.51-123.83-34.62c-72.07,22.89-73.62,39.81-71.57,44.23
	c2.04,4.43,11.32,4.68,20.85,0.77c9.53-3.92,51.83-33.96,99.49-29.53C660.71,292.23,688.11,306.95,688.11,306.95"/>
<path class="st7" d="M103.59,365.8c7.71-7.53,16.29-14.09,25.31-19.99c9.03-5.88,18.6-11.01,28.62-15.14
	c10.04-4.08,20.54-7.15,31.31-8.87c10.77-1.71,21.82-2.09,32.73-0.81c5.46,0.61,10.88,1.6,16.21,2.94
	c5.34,1.35,10.57,3.09,15.7,5.11c5.13,2.01,10.05,4.53,14.83,7.23c4.78,2.73,9.29,5.87,13.69,9.14c4.29,3.4,8.51,6.88,12.44,10.67
	c0.98,0.95,1.98,1.88,2.93,2.84l2.84,2.93c1.93,1.91,3.68,4,5.49,6.02c7.13,8.18,13.5,16.96,19.02,26.22l-0.57,0.41
	c-7.12-8.05-14.35-15.9-22.02-23.23c-3.88-3.62-7.71-7.26-11.81-10.58c-4.01-3.42-8.2-6.6-12.47-9.64
	c-8.58-6.01-17.57-11.37-27.09-15.64c-4.75-2.13-9.63-4.01-14.63-5.51c-5.01-1.46-10.11-2.59-15.29-3.37
	c-10.35-1.55-20.93-1.55-31.37-0.24c-10.45,1.31-20.75,3.95-30.69,7.62c-9.96,3.63-19.58,8.27-28.75,13.71
	c-4.59,2.71-9.06,5.64-13.4,8.74c-4.34,3.1-8.6,6.36-12.56,9.92L103.59,365.8z"/>
<path class="st8" d="M316.09,418.82c-9.58,0.77-13.28-1.28-23.62,1.91c-10.34,3.2-68.47,16.47-106.6,7.28
	c-38.12-9.19-49.02-12.51-87.06-38.81C60.77,362.9,1.02,328.42,0,313.75c0,0,88.68,61.67,103.83,59.11
	c8.99-1.52,33.42-16.52,63.54-24.83c4.86-1.35,9.88-2.52,15-3.43c16.59-2.95,34.31-3.17,51.76,2.22c5.34,1.65,10.37,3.37,15.11,5.14
	v0.01c4.97,1.85,9.61,3.76,13.96,5.71v0.01c35.19,15.79,51.03,34.13,59.53,44.96C333.28,416.1,325.66,418.05,316.09,418.82"/>
<path class="st9" d="M246.02,416.06c-6.97,0.68-14.39,1.05-22.08,0.98c-9.38-0.08-19.17-0.82-29.13-2.49
	c-7.14-1.18-14.35-2.84-21.55-5.06c-14.11-4.36-28.13-10.89-41.34-20.29c0,0,8.97-15.14,29.23-24.64c3.38-1.6,7.08-3.03,11.1-4.21
	c5.14-1.5,10.81-2.59,17.03-3.07c7.47-0.58,15.74-0.27,24.85,1.28c10.25,1.74,19.5,4.06,27.78,6.73c4.96,1.6,9.58,3.32,13.86,5.11
	c3.64,1.52,7.04,3.1,10.2,4.7c22.19,11.22,32.83,23.51,34.12,26.19C301.09,403.37,278.19,412.93,246.02,416.06"/>
<path d="M109.72,363.4c0.44,1.02,1.13,1.92,1.93,2.64c0.79,0.73,1.71,1.3,2.66,1.75l0.74,0.29c0.25,0.08,0.52,0.14,0.77,0.21
	c0.5,0.16,1.02,0.27,1.51,0.49c0.5,0.19,1.01,0.38,1.52,0.63c0.52,0.2,1.05,0.44,1.59,0.8l-0.02,0.2c-0.59,0.22-1.19,0.32-1.8,0.39
	c-0.6,0.01-1.21,0.01-1.81-0.09c-1.21-0.19-2.29-0.84-3.29-1.53c-1.01-0.67-1.93-1.51-2.63-2.49c-0.68-0.99-1.22-2.08-1.37-3.26
	L109.72,363.4z"/>
<path d="M112.32,363.4c0.44,1.02,1.13,1.92,1.93,2.64c0.79,0.73,1.71,1.3,2.66,1.75l0.74,0.29c0.26,0.08,0.52,0.14,0.77,0.21
	c0.5,0.16,1.02,0.27,1.51,0.49c0.5,0.19,1.01,0.38,1.52,0.63c0.52,0.2,1.05,0.44,1.59,0.8l-0.02,0.2c-0.59,0.22-1.19,0.32-1.8,0.39
	c-0.6,0.01-1.21,0.01-1.81-0.09c-1.21-0.19-2.29-0.84-3.29-1.53c-1.01-0.67-1.93-1.51-2.63-2.49c-0.68-0.99-1.22-2.08-1.37-3.26
	L112.32,363.4z"/>
<path d="M114.05,361.67c0.44,1.02,1.13,1.92,1.93,2.64c0.79,0.73,1.71,1.3,2.66,1.75l0.74,0.29c0.25,0.08,0.52,0.14,0.77,0.21
	c0.5,0.16,1.02,0.27,1.51,0.49c0.5,0.19,1.01,0.38,1.52,0.63c0.52,0.2,1.05,0.45,1.59,0.8l-0.02,0.2c-0.59,0.22-1.19,0.32-1.8,0.39
	c-0.6,0.01-1.21,0.01-1.81-0.09c-1.21-0.19-2.29-0.84-3.29-1.53c-1.01-0.67-1.93-1.51-2.63-2.49c-0.68-0.99-1.22-2.08-1.37-3.26
	L114.05,361.67z"/>
<path d="M115.78,359.94c0.44,1.02,1.13,1.92,1.93,2.64c0.79,0.73,1.71,1.3,2.66,1.75l0.74,0.29c0.25,0.08,0.52,0.14,0.77,0.21
	c0.5,0.16,1.02,0.27,1.51,0.49c0.5,0.19,1.01,0.38,1.52,0.63c0.52,0.2,1.05,0.45,1.59,0.8l-0.02,0.2c-0.59,0.22-1.19,0.32-1.8,0.39
	c-0.6,0.01-1.21,0.01-1.81-0.09c-1.21-0.19-2.29-0.84-3.29-1.53c-1.01-0.67-1.93-1.51-2.63-2.49c-0.68-0.99-1.22-2.08-1.37-3.26
	L115.78,359.94z"/>
<path d="M117.51,358.21c0.44,1.02,1.13,1.92,1.93,2.64c0.79,0.73,1.71,1.3,2.66,1.75l0.74,0.29c0.26,0.08,0.52,0.14,0.77,0.21
	c0.5,0.16,1.02,0.27,1.51,0.49c0.5,0.19,1.01,0.38,1.52,0.63c0.52,0.2,1.05,0.45,1.59,0.8l-0.02,0.2c-0.59,0.22-1.19,0.32-1.8,0.39
	c-0.6,0.01-1.21,0.01-1.81-0.09c-1.21-0.19-2.29-0.84-3.29-1.53c-1.01-0.67-1.93-1.51-2.63-2.49c-0.68-0.99-1.22-2.08-1.37-3.26
	L117.51,358.21z"/>
<path d="M120.87,358.21c0.44,1.02,1.13,1.92,1.93,2.64c0.79,0.73,1.71,1.3,2.66,1.75l0.74,0.29c0.25,0.08,0.52,0.14,0.77,0.21
	c0.5,0.16,1.02,0.27,1.51,0.49c0.5,0.19,1.01,0.38,1.52,0.63c0.52,0.2,1.05,0.45,1.59,0.8l-0.02,0.2c-0.59,0.22-1.19,0.32-1.8,0.39
	c-0.6,0.01-1.21,0.01-1.81-0.09c-1.21-0.19-2.29-0.84-3.29-1.53c-1.01-0.67-1.93-1.51-2.63-2.49c-0.68-0.99-1.22-2.08-1.37-3.26
	L120.87,358.21z"/>
<path d="M123.63,357.57c0.44,1.02,1.13,1.92,1.93,2.64c0.79,0.73,1.71,1.3,2.66,1.75l0.74,0.29c0.25,0.08,0.52,0.14,0.77,0.21
	c0.5,0.16,1.02,0.27,1.51,0.49c0.5,0.19,1.01,0.38,1.52,0.63c0.52,0.2,1.05,0.45,1.59,0.8l-0.02,0.2c-0.59,0.22-1.19,0.32-1.8,0.39
	c-0.6,0.01-1.21,0.01-1.81-0.09c-1.21-0.19-2.29-0.84-3.29-1.53c-1.01-0.67-1.93-1.51-2.63-2.49c-0.68-0.99-1.22-2.08-1.37-3.26
	L123.63,357.57z"/>
<path d="M123.63,355.96c0.44,1.02,1.13,1.92,1.93,2.64c0.79,0.73,1.71,1.3,2.66,1.75l0.74,0.29c0.25,0.08,0.52,0.14,0.77,0.21
	c0.5,0.16,1.02,0.27,1.51,0.49c0.5,0.19,1.01,0.38,1.52,0.63c0.52,0.2,1.05,0.45,1.59,0.8l-0.02,0.2c-0.59,0.22-1.19,0.32-1.8,0.39
	c-0.6,0.01-1.21,0.01-1.81-0.09c-1.21-0.19-2.29-0.84-3.29-1.53c-1.01-0.67-1.93-1.51-2.63-2.49c-0.68-0.99-1.22-2.08-1.37-3.26
	L123.63,355.96z"/>
<path d="M126.27,355.96c0.44,1.02,1.13,1.92,1.93,2.64c0.79,0.73,1.71,1.3,2.66,1.75l0.74,0.29c0.25,0.08,0.52,0.14,0.77,0.21
	c0.5,0.16,1.02,0.27,1.51,0.49c0.5,0.19,1.01,0.38,1.52,0.63c0.52,0.2,1.05,0.45,1.59,0.8l-0.02,0.2c-0.59,0.22-1.19,0.32-1.8,0.39
	c-0.6,0.01-1.21,0.01-1.81-0.09c-1.21-0.19-2.29-0.84-3.29-1.53c-1.01-0.67-1.93-1.51-2.63-2.49c-0.68-0.99-1.22-2.08-1.37-3.26
	L126.27,355.96z"/>
<path d="M127.05,353.54c0.44,1.02,1.13,1.92,1.93,2.64c0.79,0.73,1.71,1.3,2.66,1.75l0.74,0.29c0.26,0.08,0.52,0.14,0.77,0.21
	c0.5,0.16,1.02,0.27,1.51,0.49c0.5,0.19,1.01,0.38,1.52,0.63c0.52,0.2,1.05,0.45,1.59,0.8l-0.02,0.2c-0.59,0.22-1.19,0.32-1.8,0.39
	c-0.6,0.01-1.21,0.01-1.81-0.09c-1.21-0.19-2.29-0.84-3.29-1.53c-1.01-0.67-1.93-1.51-2.63-2.49c-0.68-0.99-1.22-2.08-1.37-3.26
	L127.05,353.54z"/>
<path d="M130.66,354.3c0.44,1.02,1.13,1.92,1.93,2.64c0.79,0.73,1.71,1.3,2.66,1.75l0.74,0.29c0.26,0.08,0.52,0.14,0.77,0.21
	c0.5,0.16,1.02,0.27,1.51,0.49c0.5,0.19,1.01,0.38,1.52,0.63c0.52,0.2,1.05,0.45,1.59,0.8l-0.02,0.2c-0.59,0.22-1.19,0.32-1.8,0.39
	c-0.6,0.01-1.21,0.01-1.81-0.09c-1.21-0.19-2.29-0.84-3.29-1.53c-1.01-0.67-1.93-1.51-2.63-2.49c-0.68-0.99-1.22-2.08-1.37-3.26
	L130.66,354.3z"/>
<path d="M133.38,353.54c0.44,1.02,1.13,1.92,1.93,2.64c0.79,0.73,1.71,1.3,2.66,1.75l0.74,0.29c0.25,0.08,0.52,0.14,0.77,0.21
	c0.5,0.16,1.02,0.27,1.51,0.49c0.5,0.19,1.01,0.38,1.52,0.63c0.52,0.2,1.05,0.45,1.59,0.8l-0.02,0.2c-0.59,0.22-1.19,0.32-1.8,0.39
	c-0.6,0.01-1.21,0.01-1.81-0.09c-1.21-0.19-2.29-0.84-3.29-1.53c-1.01-0.67-1.93-1.51-2.63-2.49c-0.68-0.99-1.22-2.08-1.37-3.26
	L133.38,353.54z"/>
<path d="M137.51,352.09c0.44,1.02,1.13,1.92,1.93,2.64c0.79,0.73,1.71,1.3,2.66,1.75l0.74,0.29c0.26,0.08,0.52,0.14,0.77,0.21
	c0.5,0.16,1.02,0.27,1.51,0.49c0.5,0.19,1.01,0.38,1.52,0.63c0.52,0.2,1.05,0.44,1.59,0.8l-0.02,0.2c-0.59,0.22-1.19,0.32-1.8,0.39
	c-0.6,0.01-1.21,0.01-1.81-0.09c-1.21-0.19-2.29-0.84-3.29-1.53c-1.01-0.67-1.93-1.51-2.63-2.49c-0.68-0.99-1.22-2.08-1.37-3.26
	L137.51,352.09z"/>
<path d="M142.19,349.34c0.44,1.02,1.13,1.92,1.93,2.64c0.79,0.73,1.71,1.3,2.66,1.75l0.74,0.29c0.26,0.08,0.52,0.14,0.77,0.21
	c0.5,0.16,1.02,0.27,1.51,0.49c0.5,0.19,1.01,0.38,1.52,0.63c0.52,0.2,1.05,0.45,1.59,0.8l-0.02,0.2c-0.59,0.22-1.19,0.32-1.8,0.39
	c-0.6,0.01-1.21,0.01-1.81-0.09c-1.21-0.19-2.29-0.84-3.29-1.53c-1.01-0.67-1.93-1.51-2.63-2.49c-0.68-0.99-1.22-2.08-1.37-3.26
	L142.19,349.34z"/>
<path d="M134.98,352.79c0.44,1.02,1.13,1.92,1.93,2.64c0.79,0.73,1.71,1.3,2.66,1.75l0.74,0.29c0.26,0.08,0.52,0.14,0.77,0.21
	c0.5,0.16,1.02,0.27,1.51,0.49c0.5,0.19,1.01,0.38,1.52,0.63c0.52,0.2,1.05,0.45,1.59,0.8l-0.01,0.2c-0.59,0.22-1.19,0.32-1.8,0.39
	c-0.6,0.01-1.21,0.01-1.81-0.09c-1.21-0.19-2.29-0.84-3.29-1.53c-1.01-0.67-1.93-1.51-2.63-2.49c-0.68-0.99-1.22-2.08-1.37-3.26
	L134.98,352.79z"/>
<path d="M138.79,349.07c0.44,1.02,1.13,1.92,1.93,2.64c0.79,0.73,1.71,1.3,2.66,1.75l0.74,0.29c0.25,0.08,0.52,0.14,0.77,0.21
	c0.5,0.16,1.02,0.27,1.51,0.49c0.5,0.19,1.01,0.38,1.52,0.63c0.52,0.2,1.05,0.44,1.59,0.8l-0.02,0.2c-0.59,0.22-1.19,0.32-1.8,0.39
	c-0.6,0.01-1.21,0.01-1.81-0.09c-1.21-0.19-2.29-0.84-3.29-1.53c-1.01-0.67-1.93-1.51-2.63-2.49c-0.68-0.99-1.22-2.08-1.37-3.26
	L138.79,349.07z"/>
<path d="M142.92,347.4c0.44,1.02,1.13,1.92,1.93,2.64c0.79,0.73,1.71,1.3,2.66,1.75l0.74,0.29c0.26,0.08,0.52,0.14,0.77,0.21
	c0.5,0.16,1.02,0.27,1.51,0.49c0.5,0.19,1.01,0.38,1.52,0.63c0.52,0.2,1.05,0.44,1.59,0.8l-0.02,0.2c-0.59,0.22-1.19,0.32-1.8,0.39
	c-0.6,0.01-1.21,0.01-1.81-0.09c-1.21-0.19-2.29-0.84-3.29-1.53c-1.01-0.67-1.93-1.51-2.63-2.49c-0.68-0.99-1.22-2.08-1.37-3.26
	L142.92,347.4z"/>
<path d="M150.07,348.64c0.44,1.02,1.13,1.92,1.93,2.64c0.79,0.73,1.71,1.3,2.66,1.75l0.74,0.29c0.26,0.08,0.52,0.14,0.77,0.21
	c0.5,0.16,1.02,0.27,1.51,0.49c0.5,0.19,1.01,0.38,1.52,0.63c0.52,0.2,1.05,0.45,1.59,0.8l-0.02,0.2c-0.59,0.22-1.19,0.32-1.8,0.39
	c-0.6,0.01-1.21,0.01-1.81-0.09c-1.21-0.19-2.29-0.84-3.29-1.53c-1.01-0.67-1.93-1.51-2.63-2.49c-0.68-0.99-1.22-2.08-1.37-3.26
	L150.07,348.64z"/>
<path d="M145.79,347.4c0.44,1.02,1.13,1.92,1.93,2.64c0.79,0.73,1.71,1.3,2.66,1.75l0.74,0.29c0.26,0.08,0.52,0.14,0.77,0.21
	c0.5,0.16,1.02,0.27,1.51,0.49c0.5,0.19,1.01,0.38,1.52,0.63c0.52,0.2,1.05,0.44,1.59,0.8l-0.02,0.2c-0.59,0.22-1.19,0.32-1.8,0.39
	c-0.6,0.01-1.21,0.01-1.81-0.09c-1.21-0.19-2.29-0.84-3.29-1.53c-1.01-0.67-1.93-1.51-2.63-2.49c-0.68-0.99-1.22-2.08-1.37-3.26
	L145.79,347.4z"/>
<path d="M150.7,347.4c0.44,1.02,1.13,1.92,1.93,2.64c0.79,0.73,1.71,1.3,2.66,1.75l0.74,0.29c0.25,0.08,0.52,0.14,0.77,0.21
	c0.5,0.16,1.02,0.27,1.51,0.49c0.5,0.19,1.01,0.38,1.52,0.63c0.52,0.2,1.05,0.44,1.59,0.8l-0.02,0.2c-0.59,0.22-1.19,0.32-1.8,0.39
	c-0.6,0.01-1.21,0.01-1.81-0.09c-1.21-0.19-2.29-0.84-3.29-1.53c-1.01-0.67-1.93-1.51-2.63-2.49c-0.68-0.99-1.22-2.08-1.37-3.26
	L150.7,347.4z"/>
<path d="M153.73,347.4c0.44,1.02,1.13,1.92,1.93,2.64c0.79,0.73,1.71,1.3,2.66,1.75l0.74,0.29c0.26,0.08,0.52,0.14,0.77,0.21
	c0.5,0.16,1.02,0.27,1.51,0.49c0.5,0.19,1.01,0.38,1.52,0.63c0.52,0.2,1.05,0.44,1.59,0.8l-0.02,0.2c-0.59,0.22-1.19,0.32-1.8,0.39
	c-0.6,0.01-1.21,0.01-1.81-0.09c-1.21-0.19-2.29-0.84-3.29-1.53c-1.01-0.67-1.93-1.51-2.63-2.49c-0.68-0.99-1.22-2.08-1.37-3.26
	L153.73,347.4z"/>
<path d="M156.33,346.65c0.44,1.02,1.13,1.92,1.93,2.64c0.79,0.73,1.71,1.3,2.66,1.75l0.74,0.29c0.26,0.08,0.52,0.14,0.77,0.21
	c0.5,0.16,1.02,0.27,1.51,0.49c0.5,0.19,1.01,0.38,1.52,0.63c0.52,0.2,1.05,0.45,1.59,0.8l-0.02,0.2c-0.59,0.22-1.19,0.32-1.8,0.39
	c-0.6,0.01-1.21,0.01-1.81-0.09c-1.21-0.19-2.29-0.84-3.29-1.53c-1.01-0.67-1.93-1.51-2.63-2.49c-0.68-0.99-1.22-2.08-1.37-3.26
	L156.33,346.65z"/>
<path d="M157.36,345.55c0.44,1.02,1.13,1.92,1.93,2.64c0.79,0.73,1.71,1.3,2.66,1.75l0.74,0.29c0.26,0.08,0.52,0.14,0.77,0.21
	c0.5,0.16,1.02,0.27,1.51,0.49c0.5,0.19,1.01,0.38,1.52,0.63c0.52,0.2,1.05,0.45,1.59,0.8l-0.02,0.2c-0.59,0.22-1.19,0.32-1.8,0.39
	c-0.6,0.01-1.21,0.01-1.81-0.09c-1.21-0.19-2.29-0.84-3.29-1.53c-1.01-0.67-1.93-1.51-2.63-2.49c-0.68-0.99-1.22-2.08-1.37-3.26
	L157.36,345.55z"/>
<path d="M157.36,343.2c0.44,1.02,1.13,1.92,1.93,2.64c0.79,0.73,1.71,1.3,2.66,1.75l0.74,0.29c0.26,0.08,0.52,0.14,0.77,0.21
	c0.5,0.16,1.02,0.27,1.51,0.49c0.5,0.19,1.01,0.38,1.52,0.63c0.52,0.2,1.05,0.45,1.59,0.8l-0.02,0.2c-0.59,0.22-1.19,0.32-1.8,0.39
	c-0.6,0.01-1.21,0.01-1.81-0.09c-1.21-0.19-2.29-0.84-3.29-1.53c-1.01-0.67-1.93-1.51-2.63-2.49c-0.68-0.99-1.22-2.08-1.37-3.26
	L157.36,343.2z"/>
<path d="M159.96,339.75c0.44,1.02,1.13,1.92,1.93,2.64c0.79,0.73,1.71,1.3,2.66,1.75l0.74,0.29c0.26,0.08,0.52,0.14,0.77,0.21
	c0.5,0.16,1.02,0.27,1.51,0.49c0.5,0.19,1.01,0.38,1.52,0.63c0.52,0.2,1.05,0.45,1.59,0.8l-0.02,0.2c-0.59,0.22-1.19,0.32-1.8,0.39
	c-0.6,0.01-1.21,0.01-1.81-0.09c-1.21-0.19-2.29-0.84-3.29-1.53c-1.01-0.68-1.93-1.51-2.63-2.49c-0.68-0.99-1.22-2.08-1.37-3.26
	L159.96,339.75z"/>
<path d="M165.37,341.74c0.44,1.02,1.13,1.92,1.93,2.64c0.79,0.73,1.71,1.3,2.66,1.75l0.74,0.29c0.26,0.08,0.52,0.14,0.77,0.21
	c0.5,0.16,1.02,0.27,1.51,0.49c0.5,0.19,1.01,0.38,1.52,0.63c0.52,0.2,1.05,0.45,1.59,0.8l-0.02,0.2c-0.59,0.22-1.19,0.32-1.8,0.39
	c-0.6,0.01-1.21,0.01-1.81-0.09c-1.21-0.19-2.29-0.84-3.29-1.53c-1.01-0.67-1.93-1.51-2.63-2.49c-0.68-0.99-1.22-2.08-1.37-3.26
	L165.37,341.74z"/>
<path d="M161.73,344.55c0.44,1.02,1.13,1.92,1.93,2.64c0.79,0.73,1.71,1.3,2.66,1.75l0.74,0.29c0.25,0.08,0.52,0.14,0.77,0.21
	c0.5,0.16,1.02,0.27,1.51,0.49c0.5,0.19,1.01,0.38,1.52,0.63c0.52,0.2,1.05,0.45,1.59,0.8l-0.02,0.2c-0.59,0.22-1.19,0.32-1.8,0.39
	c-0.6,0.01-1.21,0.01-1.81-0.09c-1.21-0.19-2.29-0.84-3.29-1.53c-1.01-0.67-1.93-1.51-2.63-2.49c-0.68-0.99-1.22-2.08-1.37-3.26
	L161.73,344.55z"/>
<path d="M164.53,345.19c0.44,1.02,1.13,1.92,1.93,2.64c0.79,0.73,1.71,1.3,2.66,1.75l0.74,0.29c0.26,0.08,0.52,0.14,0.77,0.21
	c0.5,0.16,1.02,0.27,1.51,0.49c0.5,0.19,1.01,0.38,1.52,0.63c0.52,0.2,1.05,0.45,1.59,0.8l-0.02,0.2c-0.59,0.22-1.19,0.32-1.8,0.39
	c-0.6,0.01-1.21,0.01-1.81-0.09c-1.21-0.19-2.29-0.84-3.29-1.53c-1.01-0.67-1.93-1.51-2.63-2.49c-0.68-0.99-1.22-2.08-1.37-3.26
	L164.53,345.19z"/>
<path d="M170.77,342.18c0.44,1.02,1.13,1.92,1.93,2.64c0.79,0.73,1.71,1.3,2.66,1.75l0.74,0.29c0.26,0.08,0.52,0.14,0.77,0.21
	c0.5,0.16,1.02,0.27,1.51,0.49c0.5,0.19,1.01,0.38,1.52,0.63c0.52,0.2,1.05,0.44,1.59,0.8l-0.02,0.2c-0.59,0.22-1.19,0.32-1.8,0.39
	c-0.6,0.01-1.21,0.01-1.81-0.09c-1.21-0.19-2.29-0.84-3.29-1.53c-1.01-0.67-1.93-1.51-2.63-2.49c-0.68-0.99-1.22-2.08-1.37-3.26
	L170.77,342.18z"/>
<path d="M173.84,341.11c0.44,1.02,1.13,1.92,1.93,2.64c0.79,0.73,1.71,1.3,2.66,1.75l0.74,0.29c0.25,0.08,0.52,0.14,0.77,0.21
	c0.5,0.16,1.02,0.27,1.51,0.49c0.5,0.19,1.01,0.38,1.52,0.63c0.52,0.2,1.05,0.45,1.59,0.8l-0.02,0.2c-0.59,0.22-1.19,0.32-1.8,0.39
	c-0.6,0.01-1.21,0.01-1.81-0.09c-1.21-0.19-2.29-0.84-3.29-1.53c-1.01-0.67-1.93-1.51-2.63-2.49c-0.68-0.99-1.22-2.08-1.37-3.26
	L173.84,341.11z"/>
<path d="M176.59,341.11c0.44,1.02,1.13,1.92,1.93,2.64c0.79,0.73,1.71,1.3,2.66,1.75l0.74,0.29c0.26,0.08,0.52,0.14,0.77,0.21
	c0.5,0.16,1.02,0.27,1.51,0.49c0.5,0.19,1.01,0.38,1.52,0.63c0.52,0.2,1.05,0.45,1.59,0.8l-0.02,0.2c-0.59,0.22-1.19,0.32-1.8,0.39
	c-0.6,0.01-1.21,0.01-1.81-0.09c-1.21-0.19-2.29-0.84-3.29-1.53c-1.01-0.67-1.93-1.51-2.63-2.49c-0.68-0.99-1.22-2.08-1.37-3.26
	L176.59,341.11z"/>
<path d="M179.82,340.51c0.44,1.02,1.13,1.92,1.93,2.64c0.79,0.73,1.71,1.3,2.66,1.75l0.74,0.29c0.25,0.08,0.52,0.14,0.77,0.21
	c0.5,0.16,1.02,0.27,1.51,0.49c0.5,0.19,1.01,0.38,1.52,0.63c0.52,0.2,1.05,0.45,1.59,0.8l-0.02,0.2c-0.59,0.22-1.19,0.32-1.8,0.39
	c-0.6,0.01-1.21,0.01-1.81-0.09c-1.21-0.19-2.29-0.84-3.29-1.53c-1.01-0.67-1.93-1.51-2.63-2.49c-0.68-0.99-1.22-2.08-1.37-3.26
	L179.82,340.51z"/>
<path d="M179.82,338.3c0.44,1.02,1.13,1.92,1.93,2.64c0.79,0.73,1.71,1.3,2.66,1.75l0.74,0.29c0.25,0.08,0.52,0.14,0.77,0.21
	c0.5,0.16,1.02,0.27,1.51,0.49c0.5,0.19,1.01,0.38,1.52,0.63c0.52,0.2,1.05,0.45,1.59,0.8l-0.02,0.2c-0.59,0.22-1.19,0.32-1.8,0.39
	c-0.6,0.01-1.21,0.01-1.81-0.09c-1.21-0.19-2.29-0.84-3.29-1.53c-1.01-0.67-1.93-1.51-2.63-2.49c-0.68-0.99-1.22-2.08-1.37-3.26
	L179.82,338.3z"/>
<path class="st10" d="M265.97,375.1c-0.13,16.58-7.89,31.35-19.95,40.96c-6.97,0.68-14.39,1.05-22.08,0.98
	c-9.38-0.08-19.17-0.82-29.13-2.49c-7.14-1.18-14.35-2.84-21.55-5.06c-8.14-9.31-13.08-21.49-13.08-34.83
	c0-3.45,0.33-6.83,0.97-10.1c3.38-1.6,7.08-3.03,11.1-4.21c5.14-1.5,10.81-2.59,17.03-3.07c7.47-0.58,15.74-0.27,24.85,1.28
	c10.25,1.74,19.5,4.06,27.78,6.73c4.96,1.6,9.58,3.32,13.86,5.11C259.41,371.92,262.81,373.5,265.97,375.1"/>
<path class="st11" d="M256.04,375.26c0,20.03-13.62,36.87-32.1,41.78c-9.38-0.08-19.17-0.82-29.13-2.49
	c-14.87-6.82-25.2-21.85-25.2-39.29c0-5.24,0.93-10.26,2.64-14.91c5.14-1.5,10.81-2.59,17.03-3.07c7.47-0.58,15.74-0.27,24.85,1.28
	c10.25,1.74,19.5,4.06,27.78,6.73c4.96,1.6,9.58,3.32,13.86,5.11C255.95,372,256.04,373.62,256.04,375.26"/>
<path class="st12" d="M244.36,377.44c0,17.24-13.98,31.22-31.23,31.22s-31.23-13.98-31.23-31.22c0-7.69,2.77-14.72,7.38-20.16
	c7.47-0.58,15.74-0.27,24.85,1.28c10.25,1.74,19.5,4.06,27.78,6.73C243.49,369.02,244.36,373.13,244.36,377.44"/>
<path class="st13" d="M251.15,378.35c0,4.44-3.6,8.04-8.04,8.04c-4.44,0-8.04-3.6-8.04-8.04c0-4.44,3.6-8.04,8.04-8.04
	C247.55,370.31,251.15,373.91,251.15,378.35"/>
<path class="st13" d="M236.52,392.32c0,1.99-1.62,3.61-3.61,3.61c-1.99,0-3.61-1.61-3.61-3.61c0-1.99,1.62-3.61,3.61-3.61
	C234.9,388.71,236.52,390.33,236.52,392.32"/>
<path class="st7" d="M695.31,366.31c-3.97-3.56-8.22-6.82-12.56-9.92c-4.34-3.1-8.81-6.03-13.4-8.74
	c-9.16-5.44-18.79-10.08-28.75-13.71c-9.94-3.67-20.24-6.31-30.69-7.63c-10.44-1.31-21.03-1.32-31.37,0.24
	c-5.17,0.78-10.28,1.91-15.29,3.37c-5,1.49-9.87,3.38-14.63,5.5c-9.51,4.27-18.5,9.63-27.08,15.64c-4.27,3.04-8.46,6.21-12.47,9.64
	c-4.1,3.32-7.94,6.96-11.81,10.58c-7.67,7.33-14.9,15.18-22.02,23.23l-0.57-0.41c5.52-9.26,11.89-18.04,19.02-26.21
	c1.81-2.02,3.56-4.11,5.49-6.02l2.84-2.93c0.96-0.97,1.96-1.89,2.93-2.84c3.93-3.79,8.14-7.27,12.44-10.67
	c4.39-3.27,8.91-6.41,13.69-9.14c4.79-2.71,9.7-5.22,14.83-7.23c5.13-2.02,10.36-3.76,15.7-5.11c5.34-1.34,10.76-2.33,16.21-2.94
	c10.91-1.28,21.96-0.9,32.73,0.81c10.78,1.71,21.28,4.78,31.32,8.87c10.02,4.13,19.59,9.25,28.62,15.14
	c9.02,5.9,17.6,12.46,25.31,19.99L695.31,366.31z"/>
<path class="st8" d="M483.3,418.82c9.58,0.77,13.28-1.28,23.62,1.91c10.34,3.2,68.47,16.47,106.6,7.28
	c38.12-9.19,49.02-12.51,87.06-38.81c38.04-26.3,97.79-60.78,98.81-75.45c0,0-88.68,61.67-103.83,59.11
	c-8.99-1.52-33.42-16.52-63.54-24.83c-4.86-1.35-9.88-2.52-15-3.43c-16.59-2.95-34.31-3.17-51.76,2.22
	c-5.34,1.65-10.37,3.37-15.11,5.14v0.01c-4.97,1.85-9.61,3.76-13.96,5.71v0.01c-35.19,15.79-51.03,34.13-59.53,44.96
	C466.11,416.1,473.73,418.05,483.3,418.82"/>
<path class="st9" d="M553.37,416.06c6.97,0.68,14.39,1.05,22.08,0.98c9.38-0.08,19.17-0.82,29.13-2.49
	c7.14-1.18,14.35-2.84,21.55-5.06c14.11-4.36,28.13-10.89,41.34-20.29c0,0-8.97-15.14-29.23-24.64c-3.38-1.6-7.08-3.03-11.1-4.21
	c-5.14-1.5-10.81-2.59-17.03-3.07c-7.47-0.58-15.74-0.27-24.85,1.28c-10.25,1.74-19.5,4.06-27.78,6.73
	c-4.96,1.6-9.58,3.32-13.86,5.11c-3.64,1.52-7.04,3.1-10.2,4.7c-22.19,11.22-32.83,23.51-34.12,26.19
	C498.3,403.37,521.2,412.93,553.37,416.06"/>
<path d="M689.87,363.44c-0.15,1.18-0.69,2.27-1.37,3.26c-0.7,0.98-1.61,1.82-2.63,2.49c-1,0.68-2.09,1.34-3.29,1.53
	c-0.6,0.1-1.21,0.1-1.81,0.09c-0.61-0.07-1.21-0.17-1.8-0.39l-0.02-0.2c0.54-0.35,1.06-0.6,1.59-0.8c0.51-0.26,1.02-0.44,1.52-0.63
	c0.49-0.22,1.01-0.33,1.51-0.49c0.26-0.07,0.52-0.13,0.77-0.21l0.74-0.29c0.96-0.45,1.87-1.02,2.66-1.75
	c0.8-0.72,1.49-1.62,1.93-2.64L689.87,363.44z"/>
<path d="M687.26,363.44c-0.15,1.18-0.69,2.27-1.37,3.26c-0.7,0.98-1.61,1.82-2.63,2.49c-1,0.68-2.09,1.34-3.29,1.53
	c-0.6,0.1-1.21,0.1-1.81,0.09c-0.61-0.07-1.21-0.17-1.8-0.39l-0.02-0.2c0.54-0.35,1.06-0.6,1.59-0.8c0.51-0.26,1.02-0.44,1.52-0.63
	c0.49-0.22,1.01-0.33,1.51-0.49c0.26-0.07,0.52-0.13,0.77-0.21l0.74-0.29c0.95-0.45,1.87-1.02,2.66-1.75
	c0.8-0.72,1.49-1.62,1.93-2.64L687.26,363.44z"/>
<path d="M685.53,361.71c-0.15,1.18-0.69,2.27-1.37,3.26c-0.7,0.98-1.61,1.82-2.63,2.49c-1,0.68-2.09,1.34-3.29,1.53
	c-0.6,0.1-1.21,0.1-1.81,0.09c-0.6-0.07-1.21-0.17-1.8-0.39l-0.02-0.2c0.54-0.35,1.06-0.6,1.59-0.8c0.51-0.25,1.02-0.44,1.52-0.63
	c0.49-0.22,1.01-0.33,1.51-0.49c0.25-0.07,0.52-0.13,0.77-0.21l0.74-0.29c0.95-0.45,1.87-1.02,2.66-1.75
	c0.8-0.72,1.49-1.62,1.93-2.64L685.53,361.71z"/>
<path d="M683.8,359.98c-0.15,1.18-0.69,2.27-1.37,3.26c-0.7,0.98-1.61,1.82-2.63,2.49c-1,0.68-2.09,1.34-3.29,1.53
	c-0.6,0.1-1.21,0.1-1.81,0.09c-0.6-0.07-1.21-0.17-1.8-0.39l-0.02-0.2c0.54-0.35,1.06-0.6,1.59-0.8c0.51-0.25,1.02-0.44,1.52-0.63
	c0.49-0.22,1.01-0.33,1.51-0.49c0.25-0.07,0.52-0.13,0.77-0.21l0.74-0.29c0.95-0.45,1.87-1.02,2.66-1.75
	c0.8-0.72,1.49-1.62,1.93-2.64L683.8,359.98z"/>
<path d="M682.07,358.25c-0.15,1.18-0.69,2.27-1.37,3.26c-0.7,0.98-1.61,1.82-2.63,2.49c-1,0.68-2.09,1.34-3.29,1.53
	c-0.6,0.1-1.21,0.1-1.81,0.09c-0.6-0.07-1.21-0.17-1.8-0.39l-0.02-0.2c0.54-0.35,1.06-0.6,1.59-0.8c0.51-0.26,1.02-0.44,1.52-0.63
	c0.49-0.22,1.01-0.33,1.51-0.49c0.25-0.07,0.52-0.13,0.77-0.21l0.74-0.29c0.95-0.45,1.87-1.02,2.66-1.75
	c0.8-0.72,1.49-1.62,1.93-2.64L682.07,358.25z"/>
<path d="M678.72,358.25c-0.15,1.18-0.69,2.27-1.37,3.26c-0.7,0.98-1.61,1.82-2.63,2.49c-1,0.68-2.09,1.34-3.29,1.53
	c-0.6,0.1-1.21,0.1-1.81,0.09c-0.6-0.07-1.21-0.17-1.8-0.39l-0.02-0.2c0.54-0.35,1.06-0.6,1.59-0.8c0.51-0.26,1.02-0.44,1.52-0.63
	c0.49-0.22,1.01-0.33,1.51-0.49c0.25-0.07,0.52-0.13,0.77-0.21l0.74-0.29c0.95-0.45,1.87-1.02,2.66-1.75
	c0.8-0.72,1.49-1.62,1.93-2.64L678.72,358.25z"/>
<path d="M675.95,357.61c-0.15,1.18-0.69,2.27-1.37,3.26c-0.7,0.98-1.61,1.82-2.63,2.49c-1,0.68-2.09,1.34-3.29,1.53
	c-0.6,0.1-1.21,0.1-1.81,0.09c-0.6-0.07-1.21-0.17-1.8-0.39l-0.02-0.2c0.54-0.35,1.06-0.59,1.59-0.8c0.51-0.26,1.02-0.44,1.52-0.63
	c0.49-0.22,1.01-0.33,1.51-0.49c0.26-0.07,0.52-0.13,0.77-0.21l0.74-0.29c0.96-0.45,1.87-1.02,2.66-1.75
	c0.8-0.72,1.49-1.62,1.93-2.64L675.95,357.61z"/>
<path d="M675.95,356.01c-0.15,1.18-0.69,2.27-1.37,3.26c-0.7,0.98-1.61,1.82-2.63,2.49c-1,0.68-2.09,1.34-3.29,1.53
	c-0.6,0.1-1.21,0.1-1.81,0.09c-0.6-0.07-1.21-0.17-1.8-0.39l-0.02-0.2c0.54-0.35,1.06-0.59,1.59-0.8c0.51-0.26,1.02-0.44,1.52-0.63
	c0.49-0.22,1.01-0.33,1.51-0.49c0.26-0.07,0.52-0.13,0.77-0.21l0.74-0.29c0.96-0.45,1.87-1.02,2.66-1.75
	c0.8-0.72,1.49-1.62,1.93-2.64L675.95,356.01z"/>
<path d="M673.32,356.01c-0.15,1.18-0.69,2.27-1.37,3.26c-0.7,0.98-1.61,1.82-2.63,2.49c-1,0.68-2.09,1.34-3.29,1.53
	c-0.6,0.1-1.21,0.1-1.81,0.09c-0.6-0.07-1.21-0.17-1.8-0.39l-0.02-0.2c0.54-0.35,1.06-0.59,1.59-0.8c0.51-0.26,1.02-0.44,1.52-0.63
	c0.49-0.22,1.01-0.33,1.51-0.49c0.25-0.07,0.52-0.13,0.77-0.21l0.74-0.29c0.95-0.45,1.87-1.02,2.66-1.75
	c0.8-0.72,1.49-1.62,1.93-2.64L673.32,356.01z"/>
<path d="M672.53,353.58c-0.15,1.18-0.69,2.27-1.37,3.26c-0.7,0.98-1.61,1.82-2.63,2.49c-1,0.68-2.09,1.34-3.29,1.53
	c-0.6,0.1-1.21,0.1-1.81,0.09c-0.61-0.07-1.21-0.17-1.8-0.39l-0.02-0.2c0.54-0.35,1.06-0.6,1.59-0.8c0.51-0.25,1.02-0.44,1.52-0.63
	c0.49-0.22,1.01-0.33,1.51-0.49c0.26-0.07,0.52-0.13,0.77-0.21l0.74-0.29c0.95-0.45,1.87-1.02,2.66-1.75
	c0.8-0.72,1.49-1.62,1.93-2.64L672.53,353.58z"/>
<path d="M668.93,354.34c-0.15,1.18-0.69,2.27-1.37,3.26c-0.7,0.98-1.61,1.82-2.63,2.49c-1,0.68-2.09,1.34-3.29,1.53
	c-0.6,0.1-1.21,0.1-1.81,0.09c-0.61-0.07-1.21-0.17-1.8-0.39l-0.02-0.2c0.54-0.35,1.06-0.59,1.59-0.8c0.51-0.26,1.02-0.44,1.52-0.63
	c0.49-0.22,1.01-0.33,1.51-0.49c0.26-0.07,0.52-0.13,0.77-0.21l0.74-0.29c0.95-0.45,1.87-1.02,2.66-1.75
	c0.8-0.72,1.49-1.62,1.93-2.64L668.93,354.34z"/>
<path d="M666.2,353.58c-0.15,1.18-0.69,2.27-1.37,3.26c-0.7,0.98-1.61,1.82-2.63,2.49c-1,0.68-2.09,1.34-3.29,1.53
	c-0.6,0.1-1.21,0.1-1.81,0.09c-0.61-0.07-1.21-0.17-1.8-0.39l-0.02-0.2c0.54-0.35,1.06-0.6,1.59-0.8c0.51-0.25,1.02-0.44,1.52-0.63
	c0.49-0.22,1.01-0.33,1.51-0.49c0.26-0.07,0.52-0.13,0.77-0.21l0.74-0.29c0.96-0.45,1.87-1.02,2.66-1.75
	c0.8-0.72,1.49-1.62,1.93-2.64L666.2,353.58z"/>
<path d="M662.07,352.13c-0.15,1.18-0.69,2.27-1.37,3.26c-0.7,0.98-1.61,1.82-2.63,2.49c-1,0.68-2.09,1.34-3.29,1.53
	c-0.6,0.1-1.21,0.1-1.81,0.09c-0.6-0.07-1.21-0.17-1.8-0.39l-0.02-0.2c0.54-0.35,1.06-0.6,1.59-0.8c0.51-0.26,1.02-0.44,1.52-0.63
	c0.49-0.22,1.01-0.33,1.51-0.49c0.26-0.07,0.52-0.13,0.77-0.21l0.74-0.29c0.95-0.45,1.87-1.02,2.66-1.75
	c0.8-0.72,1.49-1.62,1.93-2.64L662.07,352.13z"/>
<path d="M657.39,349.38c-0.15,1.18-0.69,2.27-1.37,3.26c-0.7,0.98-1.61,1.82-2.63,2.49c-1,0.68-2.09,1.34-3.29,1.53
	c-0.6,0.1-1.21,0.1-1.81,0.09c-0.61-0.07-1.21-0.17-1.8-0.39l-0.02-0.2c0.54-0.35,1.06-0.6,1.59-0.8c0.51-0.25,1.02-0.44,1.52-0.63
	c0.49-0.22,1.01-0.33,1.51-0.49c0.26-0.07,0.52-0.13,0.77-0.21l0.74-0.29c0.95-0.45,1.87-1.02,2.66-1.75
	c0.8-0.72,1.49-1.62,1.93-2.64L657.39,349.38z"/>
<path d="M664.61,352.83c-0.15,1.18-0.69,2.27-1.37,3.26c-0.7,0.98-1.61,1.82-2.63,2.49c-1,0.68-2.09,1.34-3.29,1.53
	c-0.6,0.1-1.21,0.1-1.81,0.09c-0.6-0.07-1.21-0.17-1.8-0.39l-0.02-0.2c0.54-0.35,1.06-0.6,1.59-0.8c0.51-0.25,1.02-0.44,1.52-0.63
	c0.49-0.22,1.01-0.33,1.51-0.49c0.26-0.07,0.52-0.13,0.77-0.21l0.74-0.29c0.95-0.45,1.87-1.02,2.66-1.75
	c0.8-0.72,1.49-1.62,1.93-2.64L664.61,352.83z"/>
<path d="M660.8,349.11c-0.15,1.18-0.69,2.27-1.37,3.26c-0.7,0.98-1.61,1.82-2.63,2.49c-1,0.68-2.09,1.34-3.29,1.53
	c-0.6,0.1-1.21,0.1-1.81,0.09c-0.61-0.07-1.21-0.17-1.8-0.39l-0.02-0.2c0.54-0.35,1.06-0.6,1.59-0.8c0.51-0.26,1.02-0.44,1.52-0.63
	c0.49-0.22,1.01-0.33,1.51-0.49c0.26-0.07,0.52-0.13,0.77-0.21l0.74-0.29c0.96-0.45,1.87-1.02,2.66-1.75
	c0.8-0.72,1.49-1.62,1.93-2.64L660.8,349.11z"/>
<path d="M656.67,347.44c-0.15,1.18-0.69,2.27-1.37,3.26c-0.7,0.98-1.61,1.82-2.63,2.49c-1,0.68-2.09,1.34-3.29,1.53
	c-0.6,0.1-1.21,0.1-1.81,0.09c-0.61-0.07-1.21-0.17-1.8-0.39l-0.02-0.2c0.54-0.35,1.06-0.6,1.59-0.8c0.51-0.26,1.02-0.44,1.52-0.63
	c0.49-0.22,1.01-0.33,1.51-0.49c0.26-0.07,0.52-0.13,0.77-0.21l0.74-0.29c0.95-0.45,1.87-1.02,2.66-1.75
	c0.8-0.72,1.49-1.62,1.93-2.64L656.67,347.44z"/>
<path d="M649.52,348.68c-0.15,1.18-0.69,2.27-1.37,3.26c-0.7,0.98-1.61,1.82-2.63,2.49c-1,0.68-2.09,1.34-3.29,1.53
	c-0.6,0.1-1.21,0.1-1.81,0.09c-0.6-0.07-1.21-0.17-1.8-0.39l-0.02-0.2c0.54-0.35,1.06-0.6,1.59-0.8c0.51-0.25,1.02-0.44,1.52-0.63
	c0.49-0.22,1.01-0.33,1.51-0.49c0.26-0.07,0.52-0.13,0.77-0.21l0.74-0.29c0.95-0.45,1.87-1.02,2.66-1.75
	c0.8-0.72,1.49-1.62,1.93-2.64L649.52,348.68z"/>
<path d="M653.8,347.44c-0.15,1.18-0.69,2.27-1.37,3.26c-0.7,0.98-1.61,1.82-2.63,2.49c-1,0.68-2.09,1.34-3.29,1.53
	c-0.6,0.1-1.21,0.1-1.81,0.09c-0.6-0.07-1.21-0.17-1.8-0.39l-0.02-0.2c0.54-0.35,1.06-0.6,1.59-0.8c0.51-0.26,1.02-0.44,1.52-0.63
	c0.49-0.22,1.01-0.33,1.51-0.49c0.25-0.07,0.52-0.13,0.77-0.21l0.74-0.29c0.95-0.45,1.87-1.02,2.66-1.75
	c0.8-0.72,1.49-1.62,1.93-2.64L653.8,347.44z"/>
<path d="M648.88,347.44c-0.15,1.18-0.69,2.27-1.37,3.26c-0.7,0.98-1.61,1.82-2.63,2.49c-1,0.68-2.09,1.34-3.29,1.53
	c-0.6,0.1-1.21,0.1-1.81,0.09c-0.6-0.07-1.21-0.17-1.8-0.39l-0.02-0.2c0.54-0.35,1.06-0.6,1.59-0.8c0.51-0.26,1.02-0.44,1.52-0.63
	c0.49-0.22,1.01-0.33,1.51-0.49c0.25-0.07,0.52-0.13,0.77-0.21l0.74-0.29c0.95-0.45,1.87-1.02,2.66-1.75
	c0.8-0.72,1.49-1.62,1.93-2.64L648.88,347.44z"/>
<path d="M645.86,347.44c-0.15,1.18-0.69,2.27-1.37,3.26c-0.7,0.98-1.61,1.82-2.63,2.49c-1,0.68-2.09,1.34-3.29,1.53
	c-0.6,0.1-1.21,0.1-1.81,0.09c-0.61-0.07-1.21-0.17-1.8-0.39l-0.02-0.2c0.54-0.35,1.06-0.6,1.59-0.8c0.51-0.26,1.02-0.44,1.52-0.63
	c0.49-0.22,1.01-0.33,1.51-0.49c0.26-0.07,0.52-0.13,0.77-0.21l0.74-0.29c0.95-0.45,1.87-1.02,2.66-1.75
	c0.8-0.72,1.49-1.62,1.93-2.64L645.86,347.44z"/>
<path d="M643.26,346.69c-0.15,1.18-0.69,2.27-1.37,3.26c-0.7,0.98-1.61,1.82-2.63,2.49c-1,0.68-2.09,1.34-3.29,1.53
	c-0.6,0.1-1.21,0.1-1.81,0.09c-0.61-0.07-1.21-0.17-1.8-0.39l-0.02-0.2c0.54-0.35,1.06-0.6,1.59-0.8c0.51-0.26,1.02-0.44,1.52-0.63
	c0.49-0.22,1.01-0.33,1.51-0.49c0.26-0.07,0.52-0.13,0.77-0.21l0.74-0.29c0.96-0.45,1.87-1.02,2.66-1.75
	c0.8-0.72,1.49-1.62,1.93-2.64L643.26,346.69z"/>
<path d="M642.23,345.59c-0.15,1.18-0.69,2.27-1.37,3.26c-0.7,0.98-1.61,1.82-2.63,2.49c-1,0.68-2.09,1.34-3.29,1.53
	c-0.6,0.1-1.21,0.1-1.81,0.09c-0.6-0.07-1.21-0.17-1.8-0.39l-0.02-0.2c0.54-0.35,1.06-0.6,1.59-0.8c0.51-0.25,1.02-0.44,1.52-0.63
	c0.49-0.22,1.01-0.33,1.51-0.49c0.26-0.07,0.52-0.13,0.77-0.21l0.74-0.29c0.95-0.45,1.87-1.02,2.66-1.75
	c0.8-0.72,1.49-1.62,1.93-2.64L642.23,345.59z"/>
<path d="M642.23,343.24c-0.15,1.18-0.69,2.27-1.37,3.26c-0.7,0.98-1.61,1.82-2.63,2.49c-1,0.68-2.09,1.34-3.29,1.53
	c-0.6,0.1-1.21,0.1-1.81,0.09c-0.6-0.07-1.21-0.17-1.8-0.39l-0.02-0.2c0.54-0.35,1.06-0.6,1.59-0.8c0.51-0.26,1.02-0.44,1.52-0.63
	c0.49-0.22,1.01-0.33,1.51-0.49c0.26-0.07,0.52-0.13,0.77-0.21l0.74-0.29c0.95-0.45,1.87-1.02,2.66-1.75
	c0.8-0.72,1.49-1.62,1.93-2.64L642.23,343.24z"/>
<path d="M639.62,339.79c-0.15,1.18-0.69,2.27-1.37,3.26c-0.7,0.98-1.61,1.82-2.63,2.49c-1,0.68-2.09,1.34-3.29,1.53
	c-0.6,0.1-1.21,0.1-1.81,0.09c-0.6-0.07-1.21-0.17-1.8-0.39l-0.02-0.2c0.54-0.35,1.06-0.6,1.59-0.8c0.51-0.26,1.02-0.44,1.52-0.63
	c0.49-0.22,1.01-0.33,1.51-0.49c0.26-0.07,0.52-0.13,0.77-0.21l0.74-0.29c0.95-0.45,1.87-1.02,2.66-1.75
	c0.8-0.72,1.49-1.62,1.93-2.64L639.62,339.79z"/>
<path d="M634.22,341.79c-0.15,1.18-0.69,2.27-1.37,3.26c-0.7,0.98-1.61,1.82-2.63,2.49c-1,0.68-2.09,1.34-3.29,1.53
	c-0.6,0.1-1.21,0.1-1.81,0.09c-0.6-0.07-1.21-0.17-1.8-0.39l-0.02-0.2c0.54-0.35,1.06-0.6,1.59-0.8c0.51-0.25,1.02-0.44,1.52-0.63
	c0.49-0.22,1.01-0.33,1.51-0.49c0.26-0.07,0.52-0.13,0.77-0.21l0.74-0.29c0.95-0.45,1.87-1.02,2.66-1.75
	c0.8-0.72,1.49-1.62,1.93-2.64L634.22,341.79z"/>
<path d="M637.85,344.59c-0.15,1.18-0.69,2.27-1.37,3.26c-0.7,0.98-1.61,1.82-2.63,2.49c-1,0.68-2.09,1.34-3.29,1.53
	c-0.6,0.1-1.21,0.1-1.81,0.09c-0.61-0.07-1.21-0.17-1.8-0.39l-0.02-0.2c0.54-0.35,1.06-0.6,1.59-0.8c0.51-0.25,1.02-0.44,1.52-0.63
	c0.49-0.22,1.01-0.33,1.51-0.49c0.26-0.07,0.52-0.13,0.77-0.21l0.74-0.29c0.96-0.45,1.87-1.02,2.66-1.75
	c0.8-0.72,1.49-1.62,1.93-2.64L637.85,344.59z"/>
<path d="M635.05,345.23c-0.15,1.18-0.69,2.27-1.37,3.26c-0.7,0.98-1.61,1.82-2.63,2.49c-1,0.68-2.09,1.34-3.29,1.53
	c-0.6,0.1-1.21,0.1-1.81,0.09c-0.61-0.07-1.21-0.17-1.8-0.39l-0.02-0.2c0.54-0.35,1.06-0.6,1.59-0.8c0.51-0.25,1.02-0.44,1.52-0.63
	c0.49-0.22,1.01-0.33,1.51-0.49c0.26-0.07,0.52-0.13,0.77-0.21l0.74-0.29c0.96-0.45,1.87-1.02,2.66-1.75
	c0.8-0.72,1.49-1.62,1.93-2.64L635.05,345.23z"/>
<path d="M628.82,342.22c-0.15,1.18-0.69,2.27-1.37,3.26c-0.7,0.98-1.61,1.82-2.63,2.49c-1,0.68-2.09,1.34-3.29,1.53
	c-0.6,0.1-1.21,0.1-1.81,0.09c-0.6-0.07-1.21-0.17-1.8-0.39l-0.02-0.2c0.54-0.35,1.06-0.6,1.59-0.8c0.51-0.26,1.02-0.44,1.52-0.63
	c0.49-0.22,1.01-0.33,1.51-0.49c0.26-0.07,0.52-0.13,0.77-0.21l0.74-0.29c0.95-0.45,1.87-1.02,2.66-1.75
	c0.8-0.72,1.49-1.62,1.93-2.64L628.82,342.22z"/>
<path d="M625.75,341.15c-0.15,1.18-0.69,2.27-1.37,3.26c-0.7,0.98-1.61,1.82-2.63,2.49c-1,0.68-2.09,1.34-3.29,1.53
	c-0.6,0.1-1.21,0.1-1.81,0.09c-0.61-0.07-1.21-0.17-1.8-0.39l-0.02-0.2c0.54-0.35,1.06-0.6,1.59-0.8c0.51-0.26,1.02-0.44,1.52-0.63
	c0.49-0.22,1.01-0.33,1.51-0.49c0.26-0.07,0.52-0.13,0.77-0.21l0.74-0.29c0.96-0.45,1.87-1.02,2.66-1.75
	c0.8-0.72,1.49-1.62,1.93-2.64L625.75,341.15z"/>
<path d="M622.99,341.15c-0.15,1.18-0.69,2.27-1.37,3.26c-0.7,0.98-1.61,1.82-2.63,2.49c-1,0.68-2.09,1.34-3.29,1.53
	c-0.6,0.1-1.21,0.1-1.81,0.09c-0.61-0.07-1.21-0.17-1.8-0.39l-0.02-0.2c0.54-0.35,1.06-0.6,1.59-0.8c0.51-0.26,1.02-0.44,1.52-0.63
	c0.49-0.22,1.01-0.33,1.51-0.49c0.26-0.07,0.52-0.13,0.77-0.21l0.74-0.29c0.96-0.45,1.87-1.02,2.66-1.75
	c0.8-0.72,1.49-1.62,1.93-2.64L622.99,341.15z"/>
<path d="M619.76,340.55c-0.15,1.18-0.69,2.27-1.37,3.26c-0.7,0.98-1.61,1.82-2.63,2.49c-1,0.68-2.09,1.34-3.29,1.53
	c-0.6,0.1-1.21,0.1-1.81,0.09c-0.6-0.07-1.21-0.17-1.8-0.39l-0.02-0.2c0.54-0.35,1.06-0.6,1.59-0.8c0.51-0.25,1.02-0.44,1.52-0.63
	c0.49-0.22,1.01-0.33,1.51-0.49c0.26-0.07,0.52-0.13,0.77-0.21l0.74-0.29c0.96-0.45,1.87-1.02,2.66-1.75
	c0.8-0.72,1.49-1.62,1.93-2.64L619.76,340.55z"/>
<path d="M619.76,338.34c-0.15,1.18-0.69,2.27-1.37,3.26c-0.7,0.98-1.61,1.82-2.63,2.49c-1,0.68-2.09,1.34-3.29,1.53
	c-0.6,0.1-1.21,0.1-1.81,0.09c-0.6-0.07-1.21-0.17-1.8-0.39l-0.02-0.2c0.54-0.35,1.06-0.6,1.59-0.8c0.51-0.25,1.02-0.44,1.52-0.63
	c0.49-0.22,1.01-0.33,1.51-0.49c0.26-0.07,0.52-0.13,0.77-0.21l0.74-0.29c0.96-0.45,1.87-1.02,2.66-1.75
	c0.8-0.72,1.49-1.62,1.93-2.64L619.76,338.34z"/>
<path class="st10" d="M533.42,375.1c0.13,16.58,7.89,31.35,19.95,40.96c6.97,0.68,14.39,1.05,22.08,0.98
	c9.38-0.08,19.17-0.82,29.13-2.49c7.14-1.18,14.35-2.84,21.55-5.06c8.14-9.31,13.08-21.49,13.08-34.83c0-3.45-0.33-6.83-0.97-10.1
	c-3.38-1.6-7.08-3.03-11.1-4.21c-5.14-1.5-10.81-2.59-17.03-3.07c-7.47-0.58-15.74-0.27-24.85,1.28
	c-10.25,1.74-19.5,4.06-27.78,6.73c-4.96,1.6-9.58,3.32-13.86,5.11C539.98,371.92,536.58,373.5,533.42,375.1"/>
<path class="st11" d="M543.35,375.26c0,20.03,13.62,36.87,32.1,41.78c9.38-0.08,19.17-0.82,29.13-2.49
	c14.87-6.82,25.2-21.85,25.2-39.29c0-5.24-0.93-10.26-2.64-14.91c-5.14-1.5-10.81-2.59-17.03-3.07c-7.47-0.58-15.74-0.27-24.85,1.28
	c-10.25,1.74-19.5,4.06-27.78,6.73c-4.96,1.6-9.58,3.32-13.86,5.11C543.44,372,543.35,373.62,543.35,375.26"/>
<path class="st12" d="M555.03,377.44c0,17.24,13.98,31.22,31.23,31.22s31.23-13.98,31.23-31.22c0-7.69-2.77-14.72-7.38-20.16
	c-7.47-0.58-15.74-0.27-24.85,1.28c-10.25,1.74-19.5,4.06-27.78,6.73C555.9,369.02,555.03,373.13,555.03,377.44"/>
<path class="st13" d="M548.24,378.35c0,4.44,3.6,8.04,8.04,8.04s8.04-3.6,8.04-8.04c0-4.44-3.6-8.04-8.04-8.04
	S548.24,373.91,548.24,378.35"/>
<path class="st13" d="M562.87,392.32c0,1.99,1.62,3.61,3.61,3.61c1.99,0,3.61-1.61,3.61-3.61c0-1.99-1.62-3.61-3.61-3.61
	C564.49,388.71,562.87,390.33,562.87,392.32"/>
<linearGradient id="SVGID_1_" gradientUnits="userSpaceOnUse" x1="295.9336" y1="726.5726" x2="295.9336" y2="500.4136">
	<stop  offset="0" style="stop-color:#B07B2B"/>
	<stop  offset="0.079" style="stop-color:#B88634"/>
	<stop  offset="0.2189" style="stop-color:#CCA44D"/>
	<stop  offset="0.4021" style="stop-color:#ECD474"/>
	<stop  offset="0.4931" style="stop-color:#FEEF8A"/>
	<stop  offset="0.6109" style="stop-color:#DFC56E"/>
	<stop  offset="0.7942" style="stop-color:#B28845"/>
	<stop  offset="0.9291" style="stop-color:#96622C"/>
	<stop  offset="1" style="stop-color:#8B5422"/>
</linearGradient>
<path class="st14" d="M205.73,500.41l28.37,22.18h43.64v40.46c0,0-7.69-12.54-25.91-4.51c-18.23,8.02-19.23,29.15-19.23,29.15
	s0.56,6.35-7.91,5.46c-8.47-0.89-23.41,5.8-23.41,5.8s5.79-0.89,16.72,0.89c10.92,1.78,35.67,25.41,64.2,28.09
	c28.53,2.68,30.9-25.86,30.9-25.86V523.6c0,0-0.17-1.17,4.01-3.76c4.18-2.59,13.24-1.81,13.24-1.81s-0.67,150.25,0,161.4
	c0.67,11.15,9.92,12.71,9.92,12.71v14.71c0,0,1.84,5.52-6.35,5.35s-51.16-26.42-60.86-31.43c-9.7-5.02-15.88-1.34-15.88-1.34
	s78.25,47.15,94.63,47.15c16.38,0,17.33-17.83,17.33-17.83s6.58,6.91,12.37,8.58c5.8,1.67,9.08-1.61,9.08-1.61l-29.26-22.01V500.41
	H205.73z"/>
<path class="st6" d="M351.8,729.07c-16.6,0-87.85-42.65-95.92-47.51l-3.58-2.16l3.59-2.13c0.3-0.18,7.5-4.32,18.31,1.27
	c2.56,1.32,7.21,4,13.11,7.38c14.4,8.27,41.21,23.66,46.65,23.77c2.84,0.05,3.61-0.66,3.78-0.88c0.35-0.45,0.14-1.21,0.14-1.22
	l-0.13-0.38l0.01-0.36v-12.83c-4.01-1.51-9.39-5.71-9.92-14.45c-0.63-10.46-0.1-139.18-0.01-159.16c-3.23-0.03-7.41,0.31-9.41,1.55
	c-1.81,1.12-2.55,1.83-2.83,2.16l-0.01,78.16c-0.05,0.56-1.25,13.81-11.09,22.05c-5.85,4.9-13.43,6.95-22.54,6.1
	c-18.69-1.75-35.78-12.2-48.26-19.83c-6.76-4.14-12.61-7.71-16.12-8.28c-10.3-1.68-15.89-0.9-15.95-0.89l-17.91,2.64l16.52-7.4
	c0.64-0.29,15.65-6.96,24.69-6c2.12,0.22,3.65-0.07,4.43-0.84c0.76-0.75,0.73-1.91,0.73-1.92l-0.02-0.17l0.01-0.17
	c0.04-0.93,1.3-22.77,20.72-31.32c11.89-5.23,19.88-2.35,24.42,0.88v-32.03h-42l-34.76-27.18h165.36v194.53l30.56,22.99l-2.03,2.03
	c-0.18,0.18-4.41,4.31-11.55,2.25c-3.6-1.04-7.35-3.77-9.98-6C368.97,720.67,363.63,729.07,351.8,729.07 M264.1,680.65
	c24.79,14.67,75.83,43.43,87.71,43.43c13.78,0,14.8-14.84,14.84-15.47l0.33-5.74l3.97,4.16c1.7,1.79,7.05,6.69,11.26,7.9
	c1.41,0.41,2.61,0.44,3.58,0.3l-26.95-20.28V502.91H212.99l21.97,17.18h45.28v51.82l-4.63-7.55c-0.26-0.42-6.89-10.53-22.78-3.53
	c-15.92,7.01-17.62,25.32-17.73,26.88c0.03,0.86-0.07,3.58-2.22,5.69c-1.91,1.88-4.76,2.64-8.46,2.24c-2.6-0.27-6.1,0.31-9.6,1.22
	c1.13,0.14,2.32,0.31,3.58,0.52c4.47,0.73,10.41,4.36,17.92,8.95c12.06,7.38,28.58,17.47,46.11,19.12
	c7.71,0.73,14.05-0.93,18.83-4.92c7.85-6.55,9.22-17.47,9.34-18.57v-78.26c-0.11-2.39,2.89-4.54,5.2-5.97
	c4.75-2.94,13.76-2.26,14.77-2.18l2.3,0.2l-0.01,2.3c-0.01,1.5-0.66,150.3,0,161.24c0.53,8.78,7.11,10.26,7.86,10.39l2.04,0.38
	l0.02,2.08v14.39c0.22,0.98,0.49,3.23-0.98,5.24c-1.49,2.02-4.16,3-7.92,2.93c-6.21-0.13-25.88-11.14-49.04-24.43
	c-5.61-3.22-10.46-6.01-12.92-7.28C268.83,681.39,266.2,680.78,264.1,680.65"/>
<linearGradient id="SVGID_2_" gradientUnits="userSpaceOnUse" x1="486.9087" y1="720.2352" x2="486.9087" y2="448.1006">
	<stop  offset="0" style="stop-color:#B07B2B"/>
	<stop  offset="0.079" style="stop-color:#B88634"/>
	<stop  offset="0.2189" style="stop-color:#CCA44D"/>
	<stop  offset="0.4021" style="stop-color:#ECD474"/>
	<stop  offset="0.4931" style="stop-color:#FEEF8A"/>
	<stop  offset="0.6109" style="stop-color:#DFC56E"/>
	<stop  offset="0.7942" style="stop-color:#B28845"/>
	<stop  offset="0.9291" style="stop-color:#96622C"/>
	<stop  offset="1" style="stop-color:#8B5422"/>
</linearGradient>
<path class="st15" d="M500.33,646.31c0,0-7.92-6.68-16.5-10.7c0,0,1.45-21.4,19.62-26.97c12.38-4.34,19.06,2.15,21.53,2.15
	c3.79,0,6,2,6,2s-22.41,11.12-26.52,23.71c-2.86,8.73-3.74,10.07-4.01,10.07C500.33,646.58,500.33,646.31,500.33,646.31
	 M529.95,600.59c0-0.25,9.95-1.43,14.63,0c4.69,1.41,2.76,9.36,2.76,9.36l-1.92,2.84C545.41,612.8,530.12,606.53,529.95,600.59
	 M496.43,574.09c0,0,5.57-13.48,26.86-6.46c21.28,7.02,25.08,11.93,25.08,11.93v11.15c0,0-19.84-15.17-37.01-11.83
	c-2.93,0.57-5.29,0.81-7.2,0.81C494.9,579.69,496.43,574.09,496.43,574.09 M383.16,448.86c-25.16,4.43-24.33,24.41-16.9,34.77
	c7.45,10.37,18.03,18.56,18.03,18.56v181.68l51.94,32.39c0,0,3.56,3.39,7.02,1.83c3.46-1.56,2.67-5.02,2.67-5.02l-31.09-19.94
	V502.19c0,0-20.96-4.67-18.51-15.6c2.45-10.92,20.43-9.23,32.05-0.45c11.62,8.78,12.7,10.18,12.7,10.18l4.64,4.09h-20.85
	c19.17,36.55,123.5,21.85,123.5,21.85v47.04c0,0-22.19-11.6-35.06-18.62c-12.88-7.02-32.77-11.7-43.97,5.36
	c-11.21,17.05,7.02,29.04,7.02,29.04s3.78-2.07-12.6,10.97c-16.38,13.04-3.79,38.23-3.79,38.23s140.27,84.36,147.13,85.77
	c6.85,1.43,4.68-5.85,4.68-5.85l-31.43-19.72V500.41H462.31c-12-10.33-24.78-20.43-34.46-33.08c-7.33-9.59-16.03-16.38-28.29-18.56
	c-2.58-0.45-5.2-0.67-7.82-0.67C388.87,448.1,385.99,448.36,383.16,448.86"/>
<path class="st6" d="M608.73,722.73c-0.64,0-1.34-0.07-2.12-0.23c-6.92-1.43-124.42-71.95-147.91-86.08l-0.62-0.38l-0.33-0.65
	c-0.55-1.1-13.3-27.16,4.46-41.3c5.78-4.6,8.88-7.19,10.56-8.65c-1.76-1.5-4.25-3.95-6.24-7.19c-3.26-5.3-5.78-13.69,0.73-23.59
	c11.39-17.34,31.88-14.56,47.25-6.18c9.59,5.23,24.51,13.09,31.36,16.68v-40.06c-17.36,2.14-105.04,11.12-123.22-23.53l-1.92-3.66
	h18.41c-0.35-0.35-2.55-2.42-12.27-9.77c-7.38-5.58-17.52-8.11-23.6-5.88c-2.5,0.91-3.97,2.51-4.5,4.88
	c-1.84,8.23,16.43,12.57,16.61,12.61l1.95,0.44l0,2v189.57l30.8,19.76l0.23,1c0.43,1.89,0.13,5.95-4.08,7.85
	c-3.79,1.71-7.7-0.44-9.57-2.11l-52.92-33V503.4c-2.84-2.31-11.23-9.48-17.57-18.3c-3.86-5.38-7.09-14.83-3.45-23.76
	c2.22-5.44,7.82-12.45,21.94-14.93c5.89-1.04,11.71-1.07,17.28-0.09c11.78,2.09,21.26,8.29,29.84,19.5
	c8.08,10.56,18.57,19.48,28.71,28.11c1.57,1.33,3.13,2.66,4.68,4h119.62v195.17l31.06,19.49l0.27,0.9c0.24,0.8,1.3,4.91-1.09,7.52
	C612.31,721.85,610.96,722.73,608.73,722.73 M461.93,632.53c55.68,33.48,139.98,83.49,145.74,85.08c1.2,0.25,1.69,0.06,1.75,0
	c0.22-0.24,0.25-1.08,0.15-1.86l-31.71-19.9V502.91H461.39l-0.7-0.61c-1.78-1.53-3.57-3.05-5.36-4.58
	c-10.34-8.8-21.04-17.89-29.45-28.88c-7.77-10.16-16.27-15.76-26.74-17.61c-4.99-0.88-10.22-0.85-15.54,0.09
	c-9.4,1.65-15.68,5.77-18.18,11.9c-2.68,6.58-0.49,14.27,2.88,18.96c7.16,9.96,17.43,17.96,17.53,18.04l0.97,0.75v181.52
	l50.98,31.79l0.18,0.18c0.01,0.01,2.43,2.19,4.27,1.36c0.8-0.36,1.12-0.9,1.24-1.35l-31.13-19.97V504.13
	c-4.07-1.16-13.31-4.34-17.03-10.2c-1.56-2.46-2.04-5.11-1.42-7.88c0.91-4.04,3.55-6.97,7.66-8.48c7.66-2.81,19.58-0.04,28.34,6.58
	c7.03,5.31,11.68,9.04,12.95,10.38l9.5,8.38h-22.89c23.21,29.92,117.59,17.01,118.58,16.87l2.85-0.4v54.05l-3.66-1.91
	c-0.22-0.11-22.35-11.69-35.1-18.64c-6.51-3.55-28.69-13.72-40.68,4.53c-4.07,6.19-4.29,12.32-0.66,18.23
	c2.12,3.45,4.95,5.84,6.25,6.83c0.87,0.11,1.49,0.66,1.79,1.12c1.33,2.01-0.37,3.51-2.52,5.4c-2.16,1.9-5.85,4.93-10.98,9.01
	C452.05,608.57,460.21,628.71,461.93,632.53 M500.68,649.1c-0.2,0-0.41-0.02-0.63-0.06c-0.78-0.12-1.41-0.57-1.8-1.21
	c-1.8-1.46-8.47-6.67-15.48-9.96l-1.55-0.72l0.12-1.71c0.06-0.94,1.8-23.19,21.38-29.19c10.12-3.54,16.95-0.39,20.61,1.31
	c0.64,0.29,1.42,0.66,1.73,0.73c4.57,0.03,7.3,2.38,7.6,2.65l2.72,2.46l-3.28,1.63c-0.22,0.11-21.52,10.8-25.26,22.24v0
	C503.64,647.04,502.67,649.1,500.68,649.1 M486.53,634.15c5.45,2.77,10.4,6.33,13.15,8.45c0.53-1.36,1.3-3.51,2.4-6.87
	c3.16-9.68,15.7-18.23,22.82-22.43c-1.15-0.02-2.26-0.54-3.67-1.19c-3.45-1.6-8.66-4-16.96-1.1
	C490.66,615.18,487.29,629.32,486.53,634.15 M546.35,615.88l-1.88-0.77c-3.94-1.62-16.82-7.44-17.02-14.45l-0.04-1.3l1.06-0.79
	c1.67-1.24,12.53-1.68,16.84-0.37c5.48,1.65,5.38,8.54,4.46,12.34l-0.11,0.44L546.35,615.88z M533.53,602.6
	c1.99,2.22,6.44,5.01,10.98,7.08l0.48-0.72c0.28-1.56,0.65-5.44-1.14-5.98C541.29,602.2,536.58,602.35,533.53,602.6 M550.87,595.76
	l-4.02-3.06c-0.19-0.15-19.17-14.44-35.02-11.36c-8.23,1.61-13.56,0.96-16.29-1.98c-2.37-2.55-1.62-5.59-1.53-5.93l0.1-0.29
	c0.07-0.16,6.72-15.54,29.96-7.88c21.39,7.06,25.84,12.21,26.28,12.78l0.52,0.68V595.76z M516.54,575.9
	c11.73,0,23.39,6.29,29.33,10.07v-5.34c-1.61-1.33-7.38-5.35-23.36-10.62c-17.51-5.77-22.95,3.41-23.68,4.85
	c-0.02,0.22,0.01,0.72,0.42,1.14c0.52,0.53,2.92,2.14,11.63,0.43C512.75,576.06,514.65,575.9,516.54,575.9"/>
</svg>
